<?xml version="1.0" encoding="UTF-8"?>
<!DOCTYPE svg PUBLIC "-//W3C//DTD SVG 1.1//EN" "http://www.w3.org/Graphics/SVG/1.1/DTD/svg11.dtd">
<!-- Creator: CorelDRAW X8 -->
<svg xmlns="http://www.w3.org/2000/svg" xml:space="preserve" width="435px" height="131px" version="1.1" shape-rendering="geometricPrecision" text-rendering="geometricPrecision" image-rendering="optimizeQuality" fill-rule="evenodd" clip-rule="evenodd"
viewBox="0 0 583 175"
 xmlns:xlink="http://www.w3.org/1999/xlink">
 <defs>
     <radialGradient id="id0" gradientUnits="userSpaceOnUse" gradientTransform="matrix(1.31352 -0.37963 0.379626 1.3135 -60 3)" cx="82.4916" cy="88.9896" r="76.0743" fx="82.4916" fy="88.9896">
      <stop offset="0" stop-opacity="1" stop-color="#FFF688"/>
      <stop offset="0.239216" stop-opacity="1" stop-color="#FFF688"/>
      <stop offset="0.839216" stop-opacity="1" stop-color="#DAB971"/>
      <stop offset="0.105882" stop-opacity="1" stop-color="#E8D27A"/>
      <stop offset="1" stop-opacity="1" stop-color="#D2AE6D"/>
     </radialGradient>
 </defs>
 <g id="Layer_x0020_1">
  <metadata id="CorelCorpID_0Corel-Layer"/>
  <g id="_1799649473264">
   <path fill="#FFFBD6" d="M81 31c37,-1 68,28 69,65 1,36 -28,66 -66,67 -37,1 -68,-28 -69,-64 -1,-36 28,-67 66,-68z"/>
   <g>
    <path fill="url(#id0)" d="M80 15c42,-1 77,31 79,72 1,41 -32,75 -74,76 -42,1 -77,-31 -79,-72 -1,-41 32,-75 74,-76z"/>
    <path id="1" fill="#FFFBD6" fill-rule="nonzero" d="M160 87l-3 0 0 0 0 -4 -1 -3 0 -4 -1 -4 -1 -3 -1 -3 -1 -4 -2 -3 -1 -3 -2 -3 -2 -3 -2 -3 -2 -3 -2 -3 -3 -2 -2 -3 -3 -2 -3 -2 -3 -2 -3 -2 -3 -2 -3 -2 -3 -1 -3 -2 -4 -1 -3 -1 -4 -1 -3 0 -4 -1 -4 0 -4 0 -4 0 0 -4 4 0 4 1 4 0 4 1 4 0 4 1 3 1 4 2 3 1 4 2 3 1 3 2 3 2 3 2 3 3 3 2 2 3 3 2 2 3 3 3 2 3 2 3 2 3 1 4 2 3 1 4 1 3 1 4 1 3 0 4 1 4 0 4 0 0zm-75 78l0 -4 0 0 3 0 4 0 4 -1 3 0 4 -1 4 -1 3 -2 3 -1 4 -2 3 -1 3 -2 3 -2 3 -2 2 -2 3 -3 3 -2 2 -3 2 -2 2 -3 2 -3 2 -3 2 -3 2 -3 1 -4 1 -3 1 -3 1 -4 1 -3 0 -4 1 -4 0 -3 0 -4 3 0 0 4 0 4 -1 3 0 4 -1 4 -1 4 -1 3 -1 4 -2 3 -1 3 -2 3 -2 4 -2 3 -2 2 -3 3 -2 3 -3 3 -3 2 -2 2 -3 2 -4 3 -3 1 -3 2 -3 2 -4 1 -3 2 -4 1 -4 1 -4 0 -3 1 -4 0 -4 1 0 0zm-80 -74l3 0 0 0 0 4 1 3 0 4 1 4 1 3 1 3 1 4 2 3 1 3 2 3 2 3 2 3 2 3 2 3 3 2 2 3 3 2 3 2 3 2 2 2 4 2 3 2 3 1 3 2 4 1 3 1 4 1 3 0 4 1 4 0 4 0 4 0 0 4 -4 0 -4 -1 -4 0 -4 -1 -4 0 -4 -1 -3 -1 -4 -2 -3 -1 -4 -2 -3 -1 -3 -2 -3 -2 -3 -2 -3 -3 -3 -2 -3 -3 -2 -2 -2 -3 -3 -3 -2 -3 -2 -3 -2 -3 -1 -4 -2 -3 -1 -4 -1 -3 -1 -4 -1 -3 0 -4 -1 -4 0 -4 0 0zm75 -78l0 4 0 0 -3 0 -4 0 -4 1 -4 0 -3 1 -4 1 -3 2 -3 1 -4 2 -3 1 -3 2 -3 2 -3 2 -2 2 -3 3 -3 2 -2 3 -2 2 -2 3 -2 3 -2 3 -2 3 -2 3 -1 4 -1 3 -1 3 -1 4 -1 3 0 4 -1 4 0 3 0 4 -3 0 0 -4 0 -4 0 -3 1 -4 1 -4 1 -4 1 -3 1 -4 2 -3 1 -3 2 -3 2 -4 2 -3 2 -2 3 -3 2 -3 3 -3 3 -2 2 -2 3 -3 3 -2 4 -1 3 -2 3 -2 4 -1 3 -2 4 -1 4 -1 4 0 3 -1 4 0 4 -1 0 0z"/>
   </g>
   <path fill="#242613" d="M22 125c10,-6 20,-10 31,-13 19,-4 39,-4 58,0 11,3 22,8 31,14 -10,21 -32,35 -58,36 -27,1 -51,-15 -62,-37z"/>
   <path fill="#7E904A" d="M24 128c10,-6 19,-10 29,-13 32,-7 65,-2 88,14 -11,19 -32,32 -57,33 -26,1 -49,-13 -60,-34z"/>
   <path fill="#1F2110" d="M82 0c1,0 2,0 3,0 0,1 0,1 0,1 0,0 0,0 1,0 0,0 0,0 0,0 0,0 1,1 1,1 1,2 4,5 5,7 0,1 0,1 0,1 0,0 0,0 0,0 0,1 0,1 1,1 0,1 0,2 0,2 1,1 1,1 1,1 0,1 0,1 1,1 0,1 0,1 0,2 1,1 2,2 2,3 1,1 1,2 1,2 1,2 3,4 3,6 2,3 2,6 3,8 1,0 1,-1 2,-1 0,-1 1,-2 2,-3 1,-1 1,-2 2,-3 0,-1 0,-1 1,-1l2 -3c0,0 0,0 0,0l0 0 0 0c0,0 0,-1 0,-1 1,0 4,-4 5,-2 1,1 0,4 0,5 0,1 0,1 0,2 -1,2 -2,5 -3,7 0,3 0,5 0,8 0,2 1,3 1,4l0 5c0,1 0,2 0,3 0,1 0,2 0,3 0,0 0,1 0,1 0,1 0,1 0,2 0,0 1,0 1,1 0,0 0,1 0,1 0,1 0,2 0,2 0,1 0,2 0,3 0,2 0,3 0,4 0,1 -1,2 -2,2l0 0 0 0c0,-1 -1,-1 -1,-1 0,0 -1,0 -1,0l0 0 -4 -1 0 0c-1,0 -2,-2 -2,-2l0 0 0 0c-1,-2 0,-1 0,-2l0 0c-1,-1 -1,-1 -1,-1 0,0 0,0 0,0 0,0 0,0 0,0 0,0 -1,0 -1,-1 0,0 0,0 -1,0 0,0 0,-1 0,-1 -1,0 -1,0 -1,0 -1,0 -2,0 -2,-1 -1,0 -3,0 -4,-1 -1,0 -2,0 -3,-1 0,0 -1,0 -1,0 0,0 0,0 -1,0l0 0 0 0c0,0 0,0 0,0 0,0 -1,0 -1,0 0,0 0,-1 0,-1l-5 -1c-2,-1 -3,-2 -4,-3 -1,-1 -2,-2 -3,-3 -1,0 -1,0 -2,-1 0,0 0,0 0,0 0,0 0,0 0,0 0,0 0,0 -1,0l0 0 0 0c0,-1 -1,0 -2,0 0,0 -1,1 -2,1 -2,1 -3,2 -5,3 -1,0 -2,1 -2,1 -2,1 -3,1 -5,2l0 0 0 0c-1,0 -2,0 -2,1 -1,0 -2,0 -3,1 0,0 0,0 -1,0 0,0 0,0 0,0 0,0 0,0 0,1 0,0 0,0 -1,1 0,1 0,1 0,2 0,0 0,1 0,1l0 0 0 0c-1,1 -1,2 -1,2 0,0 -1,-1 -1,-1 0,0 0,0 0,-1 -1,0 -1,-1 -1,-2 0,0 -1,0 -1,-1 0,0 0,-1 0,-1l1 -6c0,-1 0,-2 1,-3 0,-2 1,-4 1,-6 1,-2 2,-4 2,-7 1,-2 2,-4 3,-6 1,-2 1,-3 2,-5 0,-2 0,-7 2,-8 0,0 0,-1 0,-1 1,0 2,0 2,1 1,2 0,5 0,7 -1,6 -3,12 -1,19 0,-1 0,-1 0,-1 0,-1 1,-1 1,-1 0,-1 0,-2 1,-2 0,-2 0,-4 0,-5 1,-5 2,-10 4,-15 0,-2 1,-4 2,-6 1,-1 1,-2 2,-4 1,-1 1,-2 2,-3 0,-1 1,-2 1,-4 0,0 0,0 0,0 1,0 1,-1 1,-1 1,-1 1,-2 2,-3 0,-1 1,-2 1,-2 1,-1 1,-1 1,-1 0,0 0,-1 0,-1 1,0 1,0 2,0zm28 35c-1,1 -1,2 -1,4 0,1 0,2 -1,4 1,1 0,2 0,3l1 5c0,1 0,2 1,3 0,1 -1,2 0,3 0,1 0,2 0,4 0,1 0,1 0,2 0,1 0,2 0,2 0,0 0,0 0,0 0,0 0,0 1,0 0,0 0,0 0,0 0,0 0,-1 0,-1 0,-1 0,-3 0,-4l-1 -3c0,0 0,-1 0,-1 0,-1 0,-1 0,-2 0,0 0,-1 0,-2 0,-1 -1,-2 -1,-3 0,0 0,-1 0,-2 0,-1 0,-1 0,-1 0,-1 0,-2 0,-3 0,-1 0,-3 1,-5 0,-2 0,-4 0,-6 0,-1 0,0 0,3zm-20 -23c0,0 0,0 0,0l0 0 0 0c0,1 0,1 0,1 1,1 1,1 1,2 0,0 1,1 1,1 1,2 1,3 2,5 0,2 1,3 1,5 1,2 1,4 2,6 0,2 1,4 2,6 0,2 0,3 0,5 1,-1 1,-2 2,-3 0,0 0,0 1,-1 0,-1 0,-4 -1,-6 -1,-1 -1,-2 -2,-4 0,-1 -1,-3 -1,-4 0,0 0,0 0,-1 -1,0 -1,-1 -1,-2 0,0 -1,0 -1,0 0,0 0,0 0,0 0,0 0,0 0,0 0,-1 0,-1 -1,-2 0,0 0,0 0,0 -1,-2 -2,-3 -3,-5 -1,-1 -1,-3 -2,-4l0 1zm-23 40c0,0 0,-1 0,-1 0,0 0,0 0,0 1,-2 1,-3 1,-4 0,-1 0,-1 1,-2 0,-1 0,-2 0,-3 0,-1 1,-3 1,-4 0,-1 0,-1 1,-2 0,-1 0,-1 0,-2 0,-1 1,-1 1,-2 0,-1 0,-2 1,-2 0,-2 1,-3 1,-4 2,-5 3,-10 4,-15 0,0 0,0 0,0 0,-1 2,-7 2,-8 0,1 -4,10 -4,11 -1,3 -2,5 -3,7 -1,1 -1,2 -1,3 0,0 -1,0 -1,1 0,0 0,0 0,0 0,1 0,1 0,2 -1,0 -1,1 -1,1 0,2 -1,4 -1,5 -1,2 -1,5 -1,7 -1,0 -1,2 -1,3 -1,1 -2,7 -2,8 0,1 0,1 0,1 1,0 1,0 2,0zm25 10c0,-1 0,-1 1,-1 0,-1 0,-1 0,-1 0,0 0,-1 0,-1 0,0 0,0 0,-1 1,0 1,0 1,0 0,-1 0,-1 0,-2 0,0 0,0 -1,0 0,0 0,0 -1,1 0,0 0,0 0,1 0,0 0,0 -1,0 -1,4 -3,1 -5,2l6 2c0,0 0,0 0,0zm17 5c0,0 0,-1 0,-1 0,-2 -1,-4 -1,-7 0,-2 0,-4 -1,-6 0,-3 0,-6 0,-8 0,-3 0,-5 1,-7 0,-1 0,-2 0,-3 0,0 0,0 0,-1 0,1 0,1 -1,2 0,0 -1,1 -1,1 0,1 0,2 0,2 0,2 0,4 0,5 0,4 -1,8 -1,11 0,3 0,6 0,9 0,0 0,1 0,1 0,0 1,0 1,0 1,1 1,1 2,1 0,0 0,1 0,1 0,0 1,0 1,0zm4 -32c0,-1 0,-2 0,-3 0,1 0,2 0,3zm-1 7c0,2 0,5 0,7 1,3 1,5 1,8 0,1 0,1 0,2 0,0 0,1 0,1 0,0 0,1 0,1 0,0 0,0 0,1 0,0 0,1 0,2 0,1 0,1 1,2 0,1 0,1 0,2 0,1 -1,3 1,3 0,-1 0,-3 0,-5 0,0 0,-2 0,-2 0,0 0,0 0,0 0,0 0,-1 0,-1 0,0 0,0 0,0 0,0 0,0 0,-1 0,0 0,-1 0,-1 0,-1 0,-2 0,-3 0,-2 -1,-4 -1,-5 -1,-4 -1,-8 -2,-11zm-41 12c1,0 1,-1 2,-1 1,0 2,0 2,-1 0,-1 0,-1 0,-1 0,0 0,0 0,-1 0,0 1,-1 1,-2 0,0 0,-1 0,-2 0,0 0,-1 0,-1l0 0 0 0c0,-1 0,-3 0,-4 0,-1 0,-3 0,-4 0,0 0,-2 0,-2 0,0 0,1 0,1 0,0 0,1 -1,2 0,0 0,1 0,2 0,4 -1,9 -3,12 -1,1 -1,1 -1,2zm26 -6c0,0 0,0 0,0 -1,0 -1,-3 -1,-3 -1,-2 -1,-4 -1,-6 0,-2 -1,-4 -1,-6 0,-1 0,-2 0,-2 0,-1 0,-1 0,-2l-2 -5c0,-1 -1,-3 -1,-4 -1,-2 -2,-3 -2,-4l-2 -9c0,0 0,0 0,1 0,0 0,1 0,1 0,1 0,2 0,2 1,1 1,2 1,3 0,2 1,3 1,4 1,3 2,7 2,10 0,1 0,1 0,2 1,2 1,5 1,8 1,2 1,4 1,6 0,1 1,7 2,7 0,0 0,0 0,0 0,-1 1,-1 1,-1 0,0 0,-1 0,-1 0,0 0,0 1,-1 0,0 0,0 0,0zm-11 -24l0 2 0 0c0,0 0,1 0,2 0,0 0,1 1,2 0,0 0,1 0,2 0,0 0,1 0,1 0,1 0,1 0,2 1,1 1,2 1,2 0,2 0,4 1,6 0,2 0,5 1,7 0,1 0,3 0,4 1,0 1,0 1,0 1,0 1,-1 1,-1 0,-1 -1,-2 -1,-3 0,-1 0,-2 -1,-3 0,-1 0,-1 0,-2 0,-1 0,-3 0,-3l0 0 0 0c0,-1 0,-1 0,-1 -1,-1 -1,-1 -1,-2 0,-1 0,-2 0,-4 0,-1 -1,-2 -1,-3 0,-2 0,-4 0,-5 0,-1 0,-1 0,-2 0,-2 -1,-4 -1,-6 0,-2 0,-4 -1,-6 0,-2 0,-4 0,-6 -1,0 -1,-3 -1,-4 0,0 -1,0 -1,0 0,0 0,1 0,2 1,2 1,4 1,6 0,2 0,3 0,5 1,0 1,1 1,2 0,0 0,1 0,1 0,1 0,1 0,2 0,1 0,2 0,3zm10 39c0,0 0,0 0,0l4 1c0,0 0,-2 0,-2 0,-1 0,-2 0,-2l0 0 0 -2c0,-1 0,-3 0,-4 1,-1 1,-1 1,-2 0,-1 0,-2 1,-4 0,0 0,-2 0,-2l0 0 0 0c0,-1 0,-1 0,-1 0,0 0,-1 0,-1 0,0 -1,-1 -1,-1 0,0 0,1 0,1 0,1 0,1 0,1 0,0 0,0 0,1 -1,0 -1,0 -1,0l0 1c-1,2 -1,3 -1,5 0,1 0,1 -1,2 0,1 0,2 0,4 0,1 -1,3 -1,4l0 0 -1 1zm-2 0c1,0 1,-1 1,-2 1,-1 1,-2 1,-3 1,-1 1,-2 1,-3 0,0 0,0 0,0 0,0 0,1 -1,2 0,1 0,2 0,3 -1,0 -1,0 -1,1 0,0 0,1 -1,1 0,0 0,0 0,1 0,0 0,0 0,0zm-33 -12c0,0 0,1 0,1l0 0 0 0c0,1 0,2 0,3 0,0 1,1 1,1 0,0 0,0 0,1 0,0 0,0 0,0 1,0 2,0 3,0 0,0 1,-1 1,-1 1,0 1,0 1,0 0,0 0,0 1,0 -1,0 -1,0 -1,0 0,0 0,-1 0,-1 0,0 0,0 0,0l-4 -2 0 0c-1,0 -1,-1 -1,-1 -1,0 -1,-1 -1,-1 0,0 0,0 0,0zm41 13c0,-4 1,-8 1,-13l0 0 0 0c0,-2 0,-3 0,-5 0,-1 1,-6 1,-6 0,0 0,0 -1,0 0,0 0,3 0,4 0,0 0,1 0,2 0,0 0,1 0,1 0,0 0,0 0,0 0,2 0,3 -1,4 0,1 0,2 0,3 0,1 0,2 0,4 -1,2 0,4 0,6 0,0 0,0 0,0 0,0 0,0 0,0zm-24 -37c0,1 0,1 0,2 0,1 0,2 0,4 0,3 0,6 0,10 1,4 2,14 7,15 0,0 1,0 1,0 0,0 1,0 1,0 1,0 1,0 2,0 0,0 1,0 1,0 0,0 0,-1 0,-1 0,0 0,0 0,0 -1,0 -1,0 -1,1 -2,0 -3,0 -5,-1 -3,-1 -3,-6 -3,-9 0,0 0,-1 -1,-2 0,-1 0,-3 -1,-5 0,-1 0,-1 0,-2 0,-1 0,-2 -1,-3 0,-1 0,-2 0,-3 0,-1 1,-4 0,-6zm1 -13c0,1 0,1 0,1l-2 8c-1,1 -1,2 -1,3 0,2 -1,4 -2,6 -1,2 -1,4 -2,7 0,1 0,2 0,3 -1,1 -1,2 -1,3l-2 5 0 0c0,0 0,0 0,0 0,1 0,1 0,1 0,0 0,0 0,0l0 0 0 0c-1,0 -1,1 -1,2 0,0 0,0 0,0 0,0 1,0 1,0 0,0 0,-1 1,-2l0 0 0 -1c0,0 1,-1 1,-2 0,-2 0,-3 1,-5 0,-1 1,-3 1,-5 0,0 1,-1 1,-1 0,-1 0,-2 1,-3 0,-1 1,-2 1,-4 0,-1 0,-2 0,-3 1,-1 1,-2 1,-3 0,-1 0,-3 1,-4 0,-1 0,-2 1,-3 0,0 0,-1 0,-1 0,-1 0,-1 0,-2zm10 42c-1,-4 -2,-8 -3,-12 0,-2 -1,-5 -1,-8 0,-1 0,-1 0,-2 0,-1 0,-1 0,-2 -1,-1 -1,-2 -1,-4 0,0 0,-1 0,-1 0,-1 0,-2 0,-2 0,-1 -1,-2 -1,-3 0,-1 0,-2 0,-2l0 0 0 -1c0,-2 0,-3 0,-5 0,-2 0,-4 0,-6 0,0 -1,-1 -1,-1 0,3 0,6 -1,9 0,2 0,4 0,5 0,2 0,3 -1,5 0,3 0,6 1,9 0,2 1,5 1,7 1,2 1,3 1,5 1,2 1,3 1,5 0,1 0,2 0,2 0,1 0,1 0,1 0,0 0,1 0,1 0,0 0,0 1,0 0,1 1,1 2,0 0,0 1,0 1,0 0,0 1,0 1,0zm-7 -50c0,0 0,-1 0,-2 1,0 1,0 1,0 -1,0 -1,1 -1,1 0,1 0,1 0,1 0,0 0,0 0,0z"/>
   <g>
    <path fill="#242613" d="M79 162c0,-2 4,-27 4,-29l0 -1c-2,0 -3,0 -5,0 -1,0 -2,-1 -3,-1l0 0 0 0c-1,0 -1,0 -1,0 0,0 -1,0 -1,0 0,0 0,0 0,0l0 0 0 0c-1,-1 -2,-1 -3,-1 -1,0 -1,0 -1,0 -1,-1 -1,-1 -2,-1 0,0 -1,0 -2,-1 0,0 -1,0 -1,-1l0 0 0 0c-1,0 -2,-1 -2,-1 0,-1 0,-1 0,-1 -1,-1 -1,-1 -1,-2l0 0 0 0c0,0 -1,-1 -2,-1 0,0 0,-1 0,-1 -1,0 -1,-1 -2,-1 0,0 0,0 0,-1 0,0 0,0 0,-1 0,0 0,0 0,0 0,0 -1,0 -1,0 0,0 0,0 0,0 0,-1 0,-1 0,-1 0,0 0,0 0,-1 0,0 0,0 -1,0l0 -1 0 0c0,0 0,0 0,0 0,0 0,0 0,0l0 0 0 0c-4,4 -3,2 -4,7 0,1 0,2 0,2 0,3 0,6 1,8 1,0 1,1 1,1 0,0 1,1 1,1 0,0 0,0 0,0l0 1 0 0c1,0 1,0 1,1 1,0 3,1 4,2l0 0c0,0 0,0 0,0 0,0 0,0 0,0l0 0 0 0c1,0 1,0 1,0 0,1 0,1 1,1 0,0 0,0 0,0 0,0 0,0 0,0 1,0 1,0 1,0 1,1 2,1 3,1l0 0 4 1 0 0c0,0 0,0 0,0 0,0 0,0 0,0 0,0 1,1 1,0l0 1c0,0 0,0 0,0 0,0 0,0 0,0l0 3c0,1 -1,3 -1,4 0,2 0,4 0,6 -1,2 -1,3 -1,5l11 2zm1 -3c0,-2 1,-5 1,-8 1,-6 2,-13 2,-19 5,0 8,-1 13,-2 1,0 2,0 3,-1 1,0 2,-1 3,-1 0,0 0,0 1,0 0,-1 1,-1 1,-1 2,-1 4,-4 5,-5 1,-2 2,-5 3,-7 0,0 5,1 6,2 0,0 1,0 2,1 1,0 2,1 3,1 -1,1 -1,2 -2,4 -1,1 -1,2 -2,4 0,0 -2,2 -2,2l-2 2c0,0 0,0 0,1 0,0 0,0 -1,0l-2 2c0,0 0,0 0,0 -3,2 -5,3 -9,5 0,0 -1,0 -1,0 0,0 -1,0 -1,1l-4 1c-2,0 -2,0 -2,4 -1,5 -2,11 -3,16 -2,1 -5,1 -8,1 -4,0 -4,1 -4,-3z"/>
   </g>
   <path fill="#606E32" d="M101 151c0,0 -1,4 -2,9 -2,0 -4,1 -7,1 1,-5 2,-10 3,-15 0,-1 0,-3 0,-4 0,0 0,0 0,-1 1,0 6,-1 7,-2 5,-2 9,-4 12,-7 1,0 1,0 1,0 0,-1 0,-1 0,-1l2 -2c0,0 1,-1 1,-1 0,0 0,-1 1,-1 0,0 0,0 0,0 0,-2 1,-3 2,-4 0,-1 0,-1 1,-2 0,-1 0,-1 1,-2 0,0 3,1 4,2 13,7 3,2 -1,0 -2,0 6,21 -25,30z"/>
   <path fill="#869849" d="M69 31c0,1 -1,2 -1,3 -1,5 -3,13 -4,18 1,0 1,1 2,1 1,0 1,-2 1,-2 1,-2 1,-3 1,-4 0,-2 2,-7 2,-9 1,-3 1,-4 2,-6 0,-1 0,-2 1,-2 0,-2 1,-3 2,-4 1,-4 2,-8 3,-13 0,-3 1,-4 2,-7 3,-8 -1,-3 -3,2 -2,5 -4,12 -5,16 -2,4 -2,2 -3,7z"/>
   <path fill="#616E35" d="M68 160c1,-5 2,-12 2,-15l1 -3c0,0 0,0 0,0 0,0 0,0 0,-1l0 0c-11,0 -27,-15 -16,-26 -15,14 -6,32 8,34 1,0 0,5 -1,10 2,1 4,1 6,1z"/>
   <path fill="#869849" d="M84 52c1,5 -1,6 5,4 1,0 0,0 0,-1 -5,-17 -5,-30 -6,-45 0,-2 0,-1 0,-7 0,0 0,0 0,-1 -1,-2 -1,2 -1,2 -1,6 -1,8 -1,12 -1,4 -1,12 0,18 1,7 2,12 3,18z"/>
   <path fill="#C48655" d="M81 58c1,0 1,0 1,0 0,1 0,1 0,1 0,0 0,0 1,0l1 1 0 0c1,0 1,0 1,0l0 0 0 0c0,0 1,1 1,1l0 0 0 0c1,1 1,1 2,2 0,0 0,0 1,0 0,0 1,1 1,1 1,0 2,0 3,0 1,1 1,1 1,1 0,0 1,0 1,0 0,0 0,0 1,1 0,0 0,0 0,0 0,0 0,0 0,0 0,0 1,0 1,0 0,0 0,1 1,1 0,0 0,0 0,0 0,0 0,0 0,0 1,1 2,1 3,1 1,0 1,1 2,1 0,1 1,1 1,2 0,1 1,1 1,2 0,0 0,1 1,2l0 0 -3 1 -3 -1c0,0 0,0 -1,0 0,0 0,0 -1,0l0 0 -1 0c-1,0 -1,0 -1,0 0,0 -1,0 -1,0 0,0 -1,0 -1,0 0,-1 -1,-1 -1,-1 -1,0 -1,0 -1,0 0,0 0,0 0,0 -1,0 -2,0 -2,0l-2 -1 0 0c0,0 0,0 0,0 -1,0 -1,0 -1,0l-1 0 0 0 0 0c0,0 0,0 0,0 -1,0 -2,0 -3,0 0,1 -1,1 -1,1 0,0 0,0 0,0 -1,0 -1,0 -1,0 0,0 0,0 0,0 0,0 0,0 0,0 -1,0 -1,0 -1,0 0,0 0,0 0,0 -1,0 -1,0 -1,0 -1,0 -2,0 -2,0l-1 0c0,0 0,0 0,0 0,0 0,0 0,1 -1,0 -1,0 -1,0 0,0 -1,0 -1,-1 0,1 0,1 -1,1 0,-1 -1,-2 -1,-2 0,-1 0,-1 0,-2 0,0 0,0 0,0 0,0 0,0 0,0 0,-2 -1,-3 -3,-3l0 0 0 0c0,-1 0,-1 0,-1 -1,-1 -1,-3 0,-5 1,-1 2,-3 3,-4 3,-2 6,-2 9,0zm4 11l-1 -1 0 0c0,0 0,0 0,0 -1,1 -2,1 -3,2 0,0 0,1 0,1 0,0 0,0 1,0 0,0 1,-1 1,-1 1,0 2,0 2,-1 0,0 0,0 0,0z"/>
   <path fill="#8A9D4A" d="M95 51c1,-2 2,-3 2,-5 -1,-3 -2,-12 -3,-17 -1,-3 -2,-6 -3,-9 -1,-2 -2,-3 -2,-4l-2 -10c0,2 0,4 0,5 1,6 2,8 3,12 0,5 4,26 5,29 0,0 0,-1 0,-1z"/>
   <path fill="#5C6B2D" d="M101 40c1,-1 1,-1 1,-2 1,-5 -2,-8 -4,-13 0,0 0,0 0,-1 -1,0 -1,-1 -1,-2 0,0 -1,0 -1,0 0,0 0,0 0,0 0,-1 -1,-2 -1,-2 -2,-3 -3,-5 -4,-7 0,-1 -1,-4 -1,-4l0 4c0,1 1,2 2,4 1,1 1,3 2,4 0,3 2,8 2,11 1,2 2,4 2,7 0,2 1,4 1,5 0,0 1,-2 2,-4z"/>
   <path fill="#62402B" d="M63 101c0,0 0,0 0,0 -1,0 0,0 -1,0 0,1 0,0 0,1l1 0c0,1 0,0 0,1 0,0 0,0 1,0 0,0 0,0 0,0 0,0 -1,1 -1,1l0 0c0,0 0,0 0,0 0,0 0,1 0,1 0,0 0,0 0,0 0,0 0,1 0,2 0,0 0,0 0,0 0,1 0,0 0,1 0,1 0,0 0,2l0 0c1,1 0,0 1,2 0,0 0,0 0,0l1 0c0,0 -1,0 -1,0 0,0 2,1 2,1l-1 -2c0,-1 0,-1 0,-2 0,-1 -1,-1 -1,-2l2 0 0 -1c0,0 -1,0 -1,0 0,0 0,0 0,0 -1,0 -1,-1 -1,-1 1,-2 1,-2 2,-2 1,0 2,0 4,-1l-1 0c-2,0 -6,0 -6,-2l0 1z"/>
   <path fill="#373435" d="M86 98c0,0 0,0 0,0l0 0 0 0z"/>
   <polygon fill="#373435" points="87,98 86,98 87,98 "/>
   <path fill="#020001" d="M82 94c0,1 0,1 -1,1 0,0 0,0 0,0 0,0 -1,0 -1,0 -1,0 -2,0 -2,0 0,0 0,0 -1,0 0,0 -1,0 0,-1 0,-1 2,-1 2,-1 1,0 3,0 3,1 0,0 0,0 0,0z"/>
   <path fill="#332A25" d="M68 97c0,0 0,0 -1,0 0,-1 0,-1 0,-1l0 -1c0,0 0,0 0,0l0 0c1,0 1,0 1,0l2 1c0,0 1,1 1,1 0,0 0,0 0,0 0,0 0,0 0,0 0,0 0,0 -1,0 -1,0 0,0 -1,0l0 0c-1,0 -1,0 -1,0z"/>
   <path fill="#7A4E32" d="M64 94c0,0 0,0 0,0l0 0 -1 0c0,0 0,0 0,0 0,0 0,0 -1,0 0,-1 0,-1 0,-2 0,0 0,0 0,0 0,0 0,0 0,0 -1,0 -1,0 -2,0 -1,0 -1,0 -2,0l0 0 0 0c-1,-1 -3,-1 -4,-2l0 0 0 0c0,0 0,0 0,0l-1 0c0,-1 0,-1 0,-1 -1,0 -1,0 -1,-1 0,0 0,1 -1,0 0,0 0,-1 0,-1 0,0 0,0 0,-1l0 -1 1 1c0,0 0,0 0,0 0,0 0,0 0,0 1,1 1,2 2,3 1,1 3,2 4,1l0 0 0 1c0,0 0,0 1,0 0,0 0,0 0,0 7,1 10,-7 12,-10 1,-2 4,0 4,2l-1 0c0,0 0,0 0,0 0,0 0,0 0,0l0 0 0 0c0,0 0,0 0,1 0,0 0,0 0,1 -1,0 -1,0 -1,0l0 0 0 0c0,0 0,1 0,1 0,0 0,0 0,0 0,0 0,0 0,0 0,0 0,0 0,0 0,0 0,0 0,0 0,0 0,0 0,0 0,0 0,0 0,0 0,1 -1,1 -1,1l0 1 0 0 1 0 -1 0c0,0 -1,1 0,1l0 0 0 1c-1,0 -1,0 -1,0l0 0 1 1 -1 0c0,0 0,0 0,0 0,0 0,0 0,1 0,0 0,0 0,0 0,0 0,0 0,0l0 0c0,0 0,0 0,0 1,0 1,0 1,0 0,0 0,0 0,1l0 0 -1 0c0,0 0,0 0,0 0,0 0,0 0,0 0,0 0,0 1,0 0,0 0,1 1,0 0,0 1,0 2,0 0,0 1,0 1,0 0,0 0,0 1,0 0,0 0,0 0,0 0,0 0,0 0,0 1,0 1,0 2,0l1 0 0 0c0,0 1,0 1,1 -1,-1 -4,0 -4,0l0 0 0 0c0,0 0,1 0,1l-1 0c0,0 0,0 0,0 0,0 0,0 0,0 -1,1 -1,1 -1,1 -1,1 -3,1 -4,0 -3,-1 -5,-2 -7,-2z"/>
   <path fill="#B1764A" d="M104 75c-2,-3 -1,-5 -5,-6 -3,-2 -4,-3 -7,-4 -4,-1 -5,-3 -8,-5 -1,0 -2,-1 -2,-1 0,0 0,0 0,0l0 0c0,0 0,0 0,0 -6,-6 -12,4 -12,7 -1,2 2,1 2,4 0,0 1,5 2,4 1,-1 1,-1 1,-3 0,-1 0,-1 1,-1 0,-2 0,0 0,0 0,1 0,3 0,3 0,1 1,0 1,1l0 0c0,0 1,0 2,0 0,0 0,0 1,0 0,0 0,0 1,0 -2,0 -2,1 -3,2 -1,0 -3,0 -3,0 -1,0 -1,0 -2,0 -1,0 -2,0 -3,0 -3,-1 -5,-1 -6,-1 -2,0 -3,-1 -6,-1 0,-1 1,-2 3,-2 0,0 0,-1 0,-1 1,-1 1,-1 -2,-2 -1,0 -1,-1 -2,-1 -1,-1 1,-3 1,-3 -1,-1 2,-2 4,-3 1,-1 3,-2 4,-2 3,-1 4,-3 5,-4 7,-5 5,-2 10,1 4,4 11,5 12,6 0,1 1,1 2,1l4 1c0,0 1,1 1,1 1,0 2,0 3,1l2 2c0,0 1,0 1,1 1,1 2,2 2,3 -1,0 -4,2 -4,2z"/>
   <path fill="#62402B" d="M65 126c0,0 0,0 0,0 0,0 0,0 0,0 0,0 0,0 1,0l0 0 0 0c0,0 1,0 1,1 1,0 1,0 2,0 0,0 1,0 1,0 1,0 1,0 1,0 1,0 1,0 1,0 1,0 1,0 1,0l1 0c1,0 2,0 3,0 0,0 1,1 2,1 0,-1 0,-1 1,-1 0,0 0,0 0,0 1,0 1,0 1,0 1,0 2,0 2,0l3 0 2 -1 0 0c0,0 1,0 1,0 1,0 1,0 1,-1 0,0 0,0 0,0 0,0 1,0 1,0 0,0 0,0 0,0 0,0 1,0 1,0l0 0c0,0 0,0 0,0l0 0 0 0 0 0c0,0 0,0 0,0l0 0c0,0 -1,0 -1,0l0 0c0,0 0,1 -1,1 0,0 -1,0 -1,0 0,0 -1,0 -1,0 0,0 0,0 -1,0 0,0 0,0 0,0l0 1 0 0c-1,0 -2,0 -3,0 0,0 -1,0 -1,0 -1,0 -1,0 -2,0 0,0 0,0 0,0 0,0 0,1 0,1 0,0 0,0 0,0 0,0 0,0 0,0 0,0 0,0 0,0l0 0 0 0c-1,0 -2,0 -2,0 -1,0 -1,0 -2,0l-1 0c0,0 0,0 0,0 0,0 0,0 0,0l2 0c0,0 0,0 0,0l0 0 0 0 0 0c0,0 0,0 0,0 0,0 0,1 0,1 0,0 0,0 0,0 1,0 1,0 1,0 0,0 0,0 0,0 0,0 1,0 2,0l3 0 0 0c0,0 0,0 0,0 0,0 0,0 0,0 0,0 0,0 0,0 0,0 0,0 1,0 0,1 0,1 0,1 1,0 1,0 1,0 0,0 0,0 0,0 0,0 1,0 1,0 0,0 0,0 1,0 0,0 1,0 2,0 0,0 0,0 0,0 0,0 1,-1 1,-1 0,0 1,0 1,0 1,0 1,0 1,0 0,0 1,-1 1,-1 0,0 0,0 0,0 0,0 1,0 1,0 0,0 0,0 0,0 0,0 1,0 1,0 0,0 0,0 0,0 0,0 0,0 0,0 0,0 0,0 0,0 0,1 0,1 1,1 0,0 0,0 0,0 1,-1 1,-1 1,-1 1,0 2,0 3,0l0 0 0 0c-1,0 -1,1 -2,1l0 0 0 0c0,0 0,0 -1,1 -1,0 -1,0 -2,0 -2,1 -4,1 -6,1 -2,1 -4,1 -6,1 0,0 0,0 -1,0 0,0 0,0 0,0 -2,0 -3,0 -5,0 -2,-1 -3,-1 -5,-1 -1,0 -2,0 -3,-1 -1,0 -1,0 -2,0 0,0 -1,-1 -1,-1l0 0 0 0c-1,0 -1,0 -2,-1 0,0 -1,0 -1,-1 -1,0 -2,-1 -2,-1 0,-1 -1,-1 -1,-1 0,-1 0,-1 0,-2l0 0 0 0c0,0 0,0 0,1 0,0 1,0 1,0 0,0 0,0 0,0 0,-1 0,0 0,0l1 0c0,0 0,1 1,1l0 0 0 0c0,0 0,0 0,0 0,0 0,0 0,1 0,0 0,0 1,0 0,0 0,0 0,0 0,0 0,0 0,0 0,0 0,0 0,0 0,0 0,0 0,0 0,0 0,0 0,0 0,0 0,0 0,0zm46 -12c0,-1 0,-1 1,-2l0 0 0 0c0,2 0,4 -1,6 -1,3 -4,8 -7,9l0 0 0 0c0,0 0,0 0,0 0,0 0,-1 0,-1 5,-5 5,-5 7,-12zm-30 13c0,0 0,0 0,0 0,0 0,0 0,0 0,0 0,0 0,0z"/>
   <path fill="#B1764A" d="M58 74c0,0 1,0 1,0 0,0 1,0 1,0 1,0 2,0 2,0 1,0 1,0 1,0 0,0 1,0 1,0 0,0 0,1 0,1 1,0 2,0 2,0 1,0 1,0 1,0l0 0 0 1 -1 0c-1,0 -2,-1 -3,-1 0,0 -1,0 -2,0 0,0 -1,0 -1,0l0 0 -1 0c0,0 -2,0 -3,0 -1,0 -1,1 -2,1 0,0 -1,0 -1,0l-1 0 0 0c0,0 0,-1 0,-1 0,0 1,0 1,0l0 0 0 0c0,0 1,0 1,0 -2,-2 0,-2 0,-3 0,0 0,0 0,0 0,0 0,0 1,-1 -1,0 -1,0 -1,0 0,0 1,-1 1,-2 0,0 0,0 0,0 0,0 0,0 0,-1l0 0 1 -1c0,0 0,-1 0,-1 0,-1 0,-2 0,-3 1,0 1,0 1,0 0,0 0,0 0,0 0,0 0,0 0,0 0,0 0,0 0,0 1,-1 2,-1 4,-2 0,0 0,0 1,-1 0,0 1,0 1,0 0,0 1,0 1,-1 1,0 1,0 2,0 0,0 0,0 1,0 0,-1 0,-1 0,-1 1,0 1,0 1,0 0,-1 1,-1 1,-1 1,-1 1,-1 1,-1l1 -1 0 0c1,0 4,-2 5,-2l0 0 1 0c0,0 0,0 0,1 1,0 1,0 1,0 0,1 0,1 1,1 1,1 1,1 2,2l1 1c0,0 -1,-1 -1,-1 -2,0 -3,-1 -4,-2 -1,-2 -3,0 -6,1 0,0 0,1 -1,1 0,0 0,1 -1,1 -1,1 -2,1 -3,2 -1,0 -1,0 -1,0 -1,0 -1,0 -2,1 0,0 -1,0 -1,1 -1,0 -2,1 -3,2 0,1 -1,3 -1,4 0,1 1,1 3,1 4,0 7,3 3,3 -2,0 -5,0 -6,2z"/>
   <path fill="#626B35" d="M57 55c0,-2 0,-3 0,-4l1 -3c0,-1 1,-3 1,-5 0,-5 3,-12 3,-17 1,-3 -1,-3 -1,0 0,2 -1,5 -1,7 -1,4 -3,9 -5,13 -1,3 -7,20 1,14 0,0 0,0 0,0 3,-2 2,-3 1,-5z"/>
   <path fill="#5C6B2D" d="M106 44c-1,4 -1,7 -1,11 0,3 0,6 0,8 0,1 0,2 0,2 1,0 2,1 3,1 1,1 1,2 1,0 -1,-7 -1,-15 -2,-21 0,-5 1,-7 1,-11 0,0 0,0 0,0 0,0 0,0 0,0 0,1 -3,3 -3,4 1,3 1,3 1,6z"/>
   <path fill="#B1764A" d="M81 104c1,0 3,-1 4,-1 1,-1 1,-1 2,-1 0,0 1,0 1,0l0 0 0 0c0,0 0,1 0,2 0,1 -1,2 -1,2 0,1 0,1 -1,1 0,1 -2,4 -2,4 0,0 0,0 -1,0 0,0 0,0 0,1l0 0 -1 0 0 0c0,0 -1,0 -1,0 0,1 -1,1 -1,1l0 0 0 0c0,0 0,0 0,0 0,0 0,0 0,-1 0,0 1,0 1,0 0,-1 0,-1 0,-1 0,0 0,0 0,0 0,0 1,0 1,0 0,0 0,0 0,0 0,-1 0,-1 0,-1 0,0 0,0 0,0 0,0 1,-1 1,-1 0,0 0,-1 -1,-1 0,0 0,0 0,0l-1 0 0 0c0,0 0,0 0,0 0,0 -1,0 -1,0 0,0 0,0 -1,0 0,0 0,0 -1,0 0,0 0,0 0,0 -1,0 -1,0 -1,1l0 0 0 0c-1,-1 -2,0 -2,0 -1,0 -1,0 -2,0 0,0 -1,0 -1,0 0,0 -1,0 -2,-1 0,0 -1,0 -1,0l0 0 0 0c0,0 0,0 0,0l-1 0 0 0c0,0 0,0 0,0 0,0 0,0 0,0l0 0 0 0 2 0c0,0 0,0 -1,-1 0,0 -1,0 -1,0 -4,-2 -3,-3 1,-3l1 0 1 0c0,0 0,0 -1,0 0,0 0,0 0,0 -1,0 -1,-1 -2,-1l0 0c0,0 0,0 0,0l0 0 -2 0 0 0 3 -1 1 0 0 0c0,1 -2,1 0,1 0,1 1,1 1,1l0 0 0 0c0,0 3,0 3,0l2 0 0 0 0 0c0,0 0,0 0,0l1 0c1,0 3,-1 4,-1 1,0 1,0 1,0l0 -1c0,0 0,0 0,0 0,0 0,0 -1,0 0,0 0,0 0,0 0,0 0,0 -1,0 0,0 -1,0 -2,0l0 0 0 0c0,0 0,0 0,0 0,0 0,0 0,0 1,-1 1,-1 1,-1 0,0 1,1 1,0 0,0 0,0 0,0 0,0 0,0 1,0 0,0 0,0 0,0 0,0 0,0 0,0l0 0 0 0c0,0 0,0 1,0 0,0 0,0 0,0 1,0 1,1 1,1 0,0 0,0 1,0 0,0 0,0 0,0 0,1 -2,1 -3,1l0 1zm-5 1c-1,0 -3,0 -4,0 0,0 1,0 1,0l0 0 0 0c0,0 0,0 0,0l0 0c0,0 0,0 -1,0 0,0 0,0 0,0 1,0 2,1 3,1 1,0 1,0 1,0 1,0 1,0 1,0 0,0 1,0 1,0 1,0 2,0 3,0 1,0 1,-1 2,-1 0,0 0,0 0,0 0,0 0,0 0,0 -1,0 -1,-1 -1,0 -1,0 -1,0 -2,0 0,0 0,0 -1,0 -1,0 -2,0 -2,-1l0 1 -1 0z"/>
   <path fill="#B1764A" d="M100 79l8 -3 1 2 1 0 0 0c-1,0 -1,2 -1,3 0,1 0,3 0,5 0,2 0,3 -1,5 0,0 0,1 0,2 0,0 0,1 0,1 -1,0 -1,1 -1,1 -1,0 -1,1 -1,1l0 0 -1 0c0,0 0,0 0,0 0,0 0,0 0,0 0,0 0,0 0,0 0,1 0,1 0,1 0,1 -1,1 -1,1 -1,0 -1,0 -1,0l0 0 -2 2c0,0 0,0 0,0 0,0 0,0 0,0 -1,0 -1,1 -1,1l0 0 -1 0 0 0c0,0 0,0 0,0 0,0 0,0 -1,0 0,0 0,0 0,0l-1 1 0 -1 0 0c0,0 0,-1 -1,-1 0,0 0,0 0,0 0,0 0,0 0,-1 -1,0 -1,0 -2,-1 0,0 -1,0 -1,0 -2,-1 -4,-2 -4,-4 0,0 0,0 0,0 0,0 0,0 0,0 0,0 0,0 0,0l-1 0 0 0c0,0 0,0 0,-1l0 0c0,0 -1,0 -1,0 0,0 0,0 0,0 0,0 0,-1 0,-1 -1,0 -1,0 -1,0 0,0 0,1 0,1 0,0 0,0 -1,0l0 0 0 0c0,0 1,0 1,-1 0,0 0,0 0,0l0 0 0 0c0,0 1,0 1,0 0,0 1,0 1,0 1,0 1,0 2,0 0,0 1,-1 2,-1 0,0 3,-1 3,-2l0 0 0 0c0,0 0,0 0,0 0,0 1,-1 1,-1 0,0 0,-1 1,-1 0,-1 0,-2 0,-3l1 -3 1 -1 0 0c0,-1 0,-1 0,-1 1,0 1,0 1,0zm-2 14c0,1 -1,1 -1,1 0,0 0,0 0,0 0,0 0,0 1,0l0 -1c0,0 0,0 0,0zm-4 2c0,0 0,0 0,0 0,0 0,0 0,0l0 0c0,0 0,0 0,0zm0 0c1,0 1,0 1,0 0,0 1,0 1,0 0,0 0,0 0,0 0,0 0,0 0,0 0,0 0,0 0,0 0,0 0,0 0,0 0,0 0,0 0,0l-1 0c0,0 0,0 -1,0zm1 0l1 0c0,0 0,-1 0,-1 0,0 0,0 0,0 0,0 0,1 -1,1zm5 -5c0,-1 0,-1 0,-1 0,0 0,0 0,0 0,-1 0,-1 0,-2l0 0c0,0 0,0 0,0 0,0 0,0 0,0 0,0 0,0 0,0 0,-1 0,-1 0,-1 0,0 0,-1 0,-1 0,0 0,0 0,0 -1,0 -1,0 -1,0 0,0 0,0 0,0 0,0 0,0 0,0 0,-1 -1,-1 -1,-1 0,0 0,1 0,1 0,0 0,1 0,1 -1,1 -1,1 -1,2 -1,0 -1,1 -1,1 0,0 0,1 -1,1 0,1 0,1 -1,2 0,0 0,0 0,0 0,1 0,1 0,1 0,1 0,1 1,1 0,0 0,0 0,0 1,0 1,-1 1,-1 2,0 3,-2 4,-3z"/>
   <path fill="#80904A" d="M109 35c0,3 -1,5 -1,8 0,1 0,2 0,3l1 5c0,1 0,2 0,3 1,1 0,2 1,3 0,1 0,7 0,9 0,1 0,1 0,2 0,0 0,0 1,0 0,1 0,-1 0,-1 0,-3 0,-6 0,-7l-1 -3c0,0 0,-1 0,-1 0,-9 -2,-12 0,-21 0,-1 0,-2 0,-3 0,0 1,-1 1,-2 -1,1 -1,2 -1,3 0,0 0,1 -1,2z"/>
   <path fill="#935F38" d="M76 101l0 0 2 1c-1,0 -8,0 -9,0l0 0c-1,0 -1,0 -1,0 -1,0 -1,0 -1,0 -1,0 -1,0 -2,0 -1,0 -3,-1 -1,-2l0 0 0 0c0,0 0,0 0,0 0,0 0,0 0,0 0,0 1,0 1,0l1 -1c0,0 0,0 1,0 0,0 1,-1 1,-1 1,0 1,0 3,0 1,0 2,1 3,1 0,0 0,-1 1,-1 1,0 2,0 3,0 0,0 1,0 1,1 0,0 1,0 1,0 0,0 0,0 0,0 0,0 0,0 0,0 1,0 2,0 4,1 0,0 1,0 2,0 0,0 0,0 0,0 1,0 1,0 1,1 0,0 1,0 1,0l3 0c-2,0 -3,0 -3,0 -1,0 -2,0 -2,0 -1,0 -2,0 -2,0 0,0 2,0 2,1 0,2 -13,2 -16,2l-1 0c-6,1 3,4 4,4 0,1 -4,0 -5,0 -1,0 -1,-1 -2,-1 -4,-1 -2,-4 0,-4 0,0 1,0 2,0l0 0c0,0 0,0 0,0l0 0c1,1 2,1 3,1 1,0 5,0 5,0l0 0c2,0 8,-1 8,-2 0,0 0,0 0,0 0,0 0,0 0,0 -1,0 -1,0 -1,0 0,0 0,-1 -1,-1 0,0 0,0 0,0 -1,0 -1,0 -1,0 -1,0 -2,0 -2,0 0,0 0,0 0,0 0,0 0,0 0,0 0,0 0,0 0,0 0,0 0,0 0,0 0,0 0,0 0,-1 0,0 0,0 0,0 1,0 1,1 2,1 0,0 1,0 1,-1l0 0c-1,0 -2,0 -2,0 0,0 -1,0 -1,0 0,0 0,0 0,0 -1,-1 -2,-1 -2,-1 -1,1 -1,1 -2,1 0,0 -1,0 -1,0 0,0 0,0 0,0 0,0 0,0 0,0 -1,0 -1,0 -1,0 -1,0 -3,0 -3,1 1,0 1,0 6,0z"/>
   <path fill="#626B35" d="M62 50c1,-1 1,-2 1,-3 0,-1 1,-2 1,-2 1,-7 2,-13 4,-19 1,-4 2,-7 4,-10 -4,6 -3,2 -5,8 -1,3 -2,5 -3,6 -2,4 -4,13 -2,20z"/>
   <path fill="#935F38" d="M104 127c0,0 -1,0 -1,1 -1,0 -1,0 -1,0 -1,0 -2,1 -3,1l0 0c0,0 -9,1 -9,1 -1,0 -2,0 -2,0 -1,0 -1,0 -1,0 -2,0 -10,-1 -11,-2l0 0c0,0 0,0 0,0 0,0 0,0 0,0l1 0c1,0 1,0 2,0 2,0 1,0 2,-1 1,0 1,0 2,0 0,0 1,0 1,0 0,0 2,0 2,-1l1 0c0,0 0,0 0,0 0,0 1,0 1,0 1,0 3,-1 4,-1l0 0 0 0c0,0 1,0 1,0 0,-1 0,-1 0,-1l1 0 0 0c0,0 1,0 1,0 1,0 1,0 2,0l0 0 0 0c0,0 1,0 2,-1 0,0 0,0 0,0 1,0 1,-1 1,-1l0 0c0,0 0,0 0,0 1,-1 1,-1 1,-1 0,0 1,-1 1,-1 1,0 2,0 2,-1 0,0 0,0 1,0 0,0 0,0 0,0 0,0 0,-1 1,-1 0,0 1,0 1,-1 1,0 1,0 1,-1 0,0 0,0 0,0 0,0 0,0 1,-1 0,0 0,0 0,-1l0 0 1 -1c0,0 0,0 0,-1l0 0 0 0c0,0 0,0 1,0 0,0 0,0 0,0 0,0 0,0 0,0 0,0 0,0 0,-1 0,0 0,0 0,0 0,0 0,0 0,0 0,-1 0,-2 1,-2 0,1 0,4 0,3 0,1 -1,2 -1,2 0,0 0,0 0,1 -1,4 -4,9 -7,12z"/>
   <path fill="#231F20" d="M52 75c0,0 0,0 0,-1 0,0 0,-1 0,-1 0,-1 0,-1 0,-2 0,0 0,-1 0,-1l0 0 0 0c0,0 0,-1 0,-1 0,-1 0,-1 0,-2 1,-1 1,-1 1,-2 0,0 1,-2 1,-2 0,0 0,0 0,0 0,0 1,0 1,0 1,-1 2,-1 2,-2 1,0 2,-1 3,-1 2,0 3,0 4,-1 1,0 2,-1 2,-1 2,-1 4,-2 6,-3 1,-1 1,-1 2,-1 1,-1 2,-1 3,-1l0 0 -1 1 0 0c0,0 -4,1 -5,2l-1 0c0,1 0,1 0,1 -1,0 -1,1 -2,1 0,0 0,0 0,0 -1,1 -1,1 -1,1 -1,0 -1,0 -1,0 -1,0 -1,1 -1,1 -1,0 -1,0 -2,0 0,0 -1,1 -1,1 0,0 -1,0 -1,0 -1,1 -1,1 -1,1 -1,0 -1,0 -2,0 -1,1 -2,2 -2,4 0,0 0,1 0,1l0 2c0,0 0,0 0,0 -1,0 -1,0 -1,0 0,0 0,1 0,1 0,0 0,0 0,1 0,0 0,0 0,1 0,0 0,0 0,0 0,0 0,0 0,1 0,0 0,0 0,1 2,-1 10,1 10,1 0,0 -5,0 -5,0 0,0 0,0 0,0 -1,0 -1,0 -1,0 -2,0 -3,1 -4,1 -1,0 -2,0 -3,0 -1,0 -1,0 -2,0l0 0 0 0c0,0 0,0 0,0 1,0 1,0 1,0 1,0 1,-1 1,-1zm1 8l0 0 0 0 0 0 0 0 0 0c0,-1 -1,-2 -1,-2 0,-2 0,-3 2,-4 0,0 0,0 0,0l0 0 0 0 0 0c1,-1 1,-1 2,-1 0,0 1,0 1,0 1,0 1,0 2,0 0,0 1,0 1,0 1,0 2,0 3,0 1,0 4,1 4,2l1 0 -1 0c0,0 0,0 0,0l0 0 0 0c0,0 0,0 -1,0 0,0 0,0 -1,0 0,0 0,0 0,-1 0,0 -1,0 -1,0 0,0 0,0 0,0l0 0 0 0c-1,0 -1,0 -1,0 0,0 -1,0 -1,0 -1,0 -1,0 -2,0l0 0 0 0c0,0 -1,0 -1,0 -1,0 -3,0 -4,1 -2,3 -1,6 -1,9l0 0c0,0 0,0 0,0 0,0 0,0 0,0 0,0 0,0 0,0 0,0 0,0 0,0 0,0 0,0 0,0l0 0c0,-1 0,-1 0,-2 -1,0 -1,-1 -1,-1 0,0 0,0 0,0l0 0 0 0 0 0c0,0 0,0 0,0 0,0 0,-1 0,-1z"/>
   <path fill="#935F38" d="M82 94c0,0 0,0 0,0l0 0 0 0 0 0c0,0 0,0 0,0 0,0 0,0 0,-1l0 0 0 0c0,0 1,0 1,1 0,-1 1,-1 2,-2 0,0 0,0 0,0l0 0c0,0 0,0 0,-1l-2 0c0,0 -1,-1 -2,-1 0,0 -1,0 -2,-1 0,0 -2,-2 -2,-3l0 1 0 0c0,0 1,1 2,1 4,3 9,3 13,2 1,0 2,0 3,0l0 -1 0 0c0,1 -2,2 -3,2 -1,0 -1,0 -1,1 0,0 -1,0 -1,0 -1,0 -1,0 -2,0 0,0 -1,0 -1,0 0,0 -1,0 -1,0 0,1 0,2 -1,2 0,0 1,0 1,0 1,1 2,1 3,2 0,0 0,0 1,0 -1,0 -1,-2 -1,-2l0 0 0 0c0,0 1,1 1,2 1,0 2,1 3,1 0,0 0,0 0,0l1 0 -1 0c0,0 0,0 0,0 0,0 0,0 0,0 0,0 0,0 0,0 -1,0 -1,0 -2,0l0 0 0 0c0,0 -1,0 -1,0l0 0 0 0c0,0 0,0 0,0 0,0 0,0 0,0 0,0 0,0 0,0 0,-1 -1,-1 -1,-1 0,0 0,0 0,0 0,0 -1,0 -1,0 0,0 -1,0 -1,0l0 0 0 0c-1,0 -2,0 -2,0 -1,0 -1,0 -1,0 0,0 0,0 0,0l0 0 0 0c0,0 0,0 0,0 -1,0 -1,0 -1,-1 0,0 0,1 0,1 0,0 0,0 -1,0l0 0 0 0c0,0 0,0 -1,0l0 0 0 0c0,0 0,0 0,-1 -1,0 -2,0 -2,0 -1,0 -1,0 -1,0 -1,0 -2,0 -1,0l0 0 0 0c0,0 1,0 1,0 0,-1 3,-1 4,-1l0 0 1 0 -1 0zm14 5c0,0 0,0 0,0 0,0 0,0 0,0l0 0 0 0c0,0 0,0 0,0 -1,0 -1,0 -1,-1l0 0 0 0 0 0c0,1 1,1 1,1l0 0 0 0z"/>
   <path fill="#B1764A" d="M67 99c-1,0 -1,0 -1,0l-1 1c-1,0 0,0 -1,0 0,0 0,0 0,0 -2,1 0,2 2,2 0,0 -3,0 -3,-1 0,-1 0,-1 0,-1 0,0 0,0 0,0 0,0 0,0 0,0 1,-1 1,-1 2,-1 1,0 0,0 1,0l-1 0c0,-1 0,0 0,-1 1,0 1,1 3,0 0,0 0,0 0,0 1,0 1,0 2,0 1,-1 0,-2 0,-2 0,0 0,0 1,0 1,1 3,1 4,0 0,0 1,1 1,2l0 0 0 0 0 0c0,0 1,0 1,0 1,0 1,0 1,0 1,0 1,0 2,0 0,0 1,0 1,0 1,0 1,0 1,0 0,0 0,0 0,0l0 0c0,0 1,0 1,0 0,0 0,0 0,0 1,1 2,1 3,1 5,-1 1,0 2,1l0 0c0,0 0,0 0,0 0,0 0,0 0,0 0,0 1,0 1,0 0,0 0,0 0,0 0,0 0,1 0,1l0 0 0 0c1,0 0,0 -1,0 0,0 -1,0 -1,0 0,0 0,-1 -1,-1 0,0 0,0 0,0 -1,0 -2,0 -2,0 -2,-1 -3,-1 -4,-1 0,0 0,0 0,0 0,0 -1,0 -1,0 0,-1 -1,-1 -1,-1 -1,1 -2,0 -3,0 -1,0 -1,1 -2,1 -1,0 -3,-1 -4,0 1,0 3,0 4,0 -2,0 -5,0 -7,0l0 0 0 0c0,0 1,0 1,0 0,0 0,0 1,0 0,0 2,-1 -1,0z"/>
   <path fill="#231F20" d="M93 79c1,0 1,0 2,1l1 0 -1 0c-1,0 -1,0 -2,0 0,0 -1,0 -1,0 0,0 0,0 0,0l0 1 -3 0c0,0 0,0 0,0l1 0 -1 0c-1,0 -2,1 -3,1 0,0 0,0 0,0 -1,0 -1,-1 -1,0 0,0 0,0 0,0l0 0 -1 0 -1 -1c0,0 0,0 0,0l-1 0 0 0c0,0 0,0 0,0 0,0 1,1 0,1 0,0 -1,-1 -2,0 0,0 0,-1 0,-1 -1,0 -1,0 -1,-1 0,0 1,0 1,0 0,-1 1,-1 1,-1 0,0 0,0 0,0 0,0 0,0 0,0 0,0 1,0 1,0l0 0 0 0c0,-1 9,-1 11,0z"/>
   <path fill="#020001" d="M92 125c0,0 -1,1 -1,0 0,0 -1,0 -1,1 0,0 0,0 0,0 0,0 0,0 -1,0 0,0 -1,0 -1,0l-2 1 -3 0c0,0 -1,0 -2,0 0,0 0,0 -1,0 0,0 0,0 0,1 -1,0 -1,0 -1,0 -1,0 -2,0 -2,0 -1,-1 -2,-1 -3,0l0 0 -1 0 0 0c0,0 0,0 -1,-1 0,0 0,0 -1,0 0,0 0,0 -1,0 0,0 -1,0 -1,0 -1,0 -1,0 -2,0 -1,0 -1,-1 -2,-1 0,0 0,0 0,0 0,0 0,0 0,0 0,0 0,0 0,0 0,0 0,0 0,0 0,0 0,0 0,0 0,0 0,0 0,0l0 0 0 0c0,0 0,0 -1,0 0,0 0,0 0,0 0,-1 0,-1 0,-1 -1,0 -1,-1 -1,-1l-1 0c0,0 0,0 0,0 0,0 0,0 0,0l0 0 0 0c0,0 -1,0 -1,0 0,0 0,0 0,0l0 -1 0 0c-1,0 -1,0 -2,-1 0,0 -1,0 -1,-1 0,0 0,0 -1,-1 0,0 -1,0 -1,-1 0,0 0,0 0,0 0,0 0,-1 0,-1 0,0 0,0 0,0 0,0 0,0 0,0 0,0 0,0 0,0 0,0 0,-1 -1,-1 0,0 0,0 0,-1 0,0 0,0 0,0 0,0 0,0 0,0 0,0 0,0 0,0l0 0 0 0c0,-1 0,-1 0,-1 -1,0 -1,-1 -1,-1l0 0 0 0c0,0 0,0 0,0 0,0 0,-1 0,-1 0,0 0,0 0,0 0,0 0,0 -1,0 0,0 0,0 0,0 0,0 0,0 0,0 0,0 0,-1 0,-1 0,0 0,0 0,0 0,0 0,0 0,0 0,0 0,0 0,0 0,0 0,-1 0,-1 0,0 0,0 -1,0 0,-1 0,-1 0,-1 0,-1 0,-1 0,-2 0,0 0,0 0,0 0,-1 0,-1 0,-1 0,-1 0,-1 0,-2 0,0 0,-1 0,-1 0,-1 0,-1 0,-2 0,0 0,0 0,0l0 -1 0 1 0 -1c0,0 0,-1 0,-1 0,0 0,0 0,-1 0,0 1,0 1,0 0,0 0,0 0,0 0,0 0,-1 0,-1 0,0 0,0 0,-1l0 0 0 0c0,0 0,0 0,0 0,0 0,0 0,0l1 0 0 0c0,1 0,1 0,1 0,1 0,1 0,1 0,0 0,0 0,0 0,0 0,0 0,0 0,0 0,0 0,0 0,0 1,0 1,0 0,0 0,0 1,-1 0,0 0,0 1,0 0,0 0,0 0,0 0,0 0,0 1,0 0,-1 0,-1 0,-1l1 0 1 0 -1 -1 1 0c0,0 0,0 0,0 0,0 0,0 0,0 0,0 0,0 0,0l0 0 0 0c0,0 1,0 1,0 0,0 0,0 0,0 1,0 1,0 1,0 0,0 0,0 0,0 0,0 0,0 1,0 0,0 0,0 0,0 1,0 0,0 1,0 0,0 0,0 0,0 1,0 1,0 1,0 0,0 0,0 0,0 1,0 1,-1 0,-1l0 0 0 0c0,0 0,0 0,0 0,0 0,0 0,0 0,0 0,0 0,0 0,0 0,0 -1,-1 0,0 0,0 0,0l0 0c0,0 0,0 0,0 0,0 0,0 0,0 -1,0 -1,0 -1,0 0,-1 1,-1 1,-1 0,0 3,1 4,1 0,1 1,1 2,2 0,0 1,0 1,0 0,0 1,1 0,1 0,0 0,0 0,1 0,0 0,0 -1,0 0,0 0,0 0,0 0,0 0,0 0,0 0,0 0,0 0,0 0,0 0,0 0,0 -1,0 -1,0 -1,0 0,0 -1,0 -1,0 0,0 0,0 0,0 0,0 0,0 0,0 -1,0 -1,1 -2,1 0,0 0,0 0,0l0 0 0 0c0,0 -1,0 -1,0 0,0 0,0 0,0l-1 0 0 0c0,0 0,0 0,0 0,0 0,0 0,0 0,0 0,1 -1,1 0,0 0,0 0,0 0,0 0,0 0,0 0,0 0,0 0,1 0,0 0,0 0,1 0,0 0,0 0,0 0,0 0,0 0,0l1 0 -1 0c0,0 0,1 0,1 0,0 0,0 0,0 0,0 1,0 1,0l0 0 0 0c0,0 0,0 0,0 0,0 0,0 0,0 0,0 0,0 0,0l0 0 0 0c0,0 0,0 0,0 0,0 0,0 0,0l0 0 -1 1 0 0c0,0 0,0 0,0 0,0 1,0 1,0l0 0 0 0c0,1 0,1 0,1 0,0 0,0 0,0 0,0 -1,0 -1,0 0,1 0,1 0,1 0,1 1,1 0,1 0,0 0,0 0,0 0,0 0,0 0,0 0,1 0,1 0,1 0,0 0,0 0,0 0,0 0,0 0,1 0,0 1,0 1,0l0 0 0 1c0,0 0,0 0,0 0,0 0,1 0,1 1,0 1,0 1,1 1,0 1,0 1,1l0 0 1 0c0,0 0,0 0,0 0,0 0,0 0,0l0 0c0,0 0,0 0,0 0,0 0,0 0,0l1 0 -1 1c0,0 0,0 0,0 0,0 0,0 0,0 1,0 1,0 1,0l0 0 0 0c1,0 1,0 1,0 1,0 1,0 1,0 0,1 0,1 1,1 0,0 0,0 1,0 0,-1 0,-1 0,-1 1,0 1,0 1,0l0 0 0 0c0,0 0,0 0,0 0,0 0,0 0,0 0,1 0,1 0,1 1,-1 1,-1 1,-1 0,0 1,0 1,0 0,1 0,1 0,1 0,0 1,0 2,0 0,0 0,0 0,0l0 0 1 -1c1,-1 1,0 2,-1l0 0 0 0c0,0 0,0 1,-1 0,0 1,0 1,0l1 -1 0 0c0,0 1,0 1,0 0,0 0,0 1,0 0,0 0,0 0,0 0,0 0,0 0,0 0,0 0,0 0,-1l0 0c0,0 0,0 0,0 0,0 0,0 0,0l0 0 1 0c0,0 1,0 1,-1l0 0 0 0c0,0 0,0 0,0 0,0 0,0 0,0l1 0c0,0 0,0 0,-1 0,0 0,0 0,0 0,0 0,0 1,-1 0,0 0,0 1,0l0 -1 0 0c0,0 0,0 0,0 0,0 0,0 0,0 1,0 1,0 1,0 0,0 0,-1 0,-1 0,0 0,0 0,0 0,0 0,0 0,-1 1,0 1,0 1,0 0,0 0,0 0,0 0,0 0,0 0,0 0,0 0,0 1,-1 0,0 0,0 0,-1 0,0 0,0 0,0 0,0 0,0 0,0 0,0 0,0 0,-1l-1 0 0 0c0,-1 0,-1 -1,-1 0,-1 0,-1 0,-1 0,0 -1,0 -1,0l0 0 0 0c0,0 0,0 0,0 0,0 0,0 0,0 0,0 0,0 0,0 0,0 0,0 0,0 0,0 0,0 0,0 0,0 -1,0 -1,-1l-1 1 0 0 0 -1 0 1 -1 -1 0 0 -1 0 -1 0c0,0 0,0 0,0l0 0 0 0c0,0 0,0 0,0l0 0 -1 0 0 0 0 0 0 0 -1 0 0 0c-1,0 -2,0 -2,0 -1,0 -2,0 -3,0 0,0 -1,0 -2,0 0,0 0,0 0,0 -2,0 -2,-1 -1,-2 0,0 0,0 1,-1 0,0 0,0 0,0 0,0 0,0 0,0l0 0 0 0c0,0 0,0 0,0l0 0c1,0 1,0 1,0 0,0 0,0 0,0 0,0 0,0 0,0l0 0 0 0c0,1 2,0 2,0 0,0 0,0 0,0 0,0 1,0 2,0 0,1 0,1 0,1 1,0 1,0 1,0 0,0 1,0 1,0 0,0 0,-1 0,-1 0,0 1,1 1,1 0,0 0,0 0,0 0,0 0,0 0,0 0,0 0,0 1,0 0,0 1,0 2,0l0 0c0,0 1,0 1,0 0,0 1,0 1,0 0,0 0,0 0,0 0,0 1,0 1,0 0,1 0,1 0,1 0,0 0,0 0,0 0,0 0,0 0,0 0,0 1,0 1,0l0 0 0 0c1,0 1,0 2,0 0,0 0,0 0,0 0,0 0,0 0,0 0,0 1,0 1,0 0,0 1,1 1,1 0,0 0,1 1,1 0,0 0,0 0,0 0,0 0,0 0,0 0,0 0,0 0,0 0,1 0,1 1,1 0,0 0,0 0,0l0 0 1 1c0,0 0,0 0,0 1,0 1,0 1,0l1 -1c0,0 0,0 0,0 0,0 1,0 1,0l2 -2c0,0 0,0 1,-1 0,0 0,0 1,0 0,0 0,0 0,-1 0,0 0,0 0,-1l0 0 0 0c0,0 0,1 1,1 0,-1 0,-1 0,-2 0,0 0,0 0,0 1,0 1,0 1,-1 0,0 0,0 0,-1 0,0 0,0 0,-1 0,0 0,0 0,0 0,0 1,-1 1,-1 0,0 0,-1 0,-1 0,-1 0,-1 0,-2 0,0 0,-1 0,-1 1,-1 1,-2 1,-2 0,-1 0,-1 0,-2 0,0 0,0 0,-1 0,-1 0,-2 0,-3l0 0 0 0c1,-1 2,-2 3,-2 1,-1 2,-1 3,-1 0,0 0,0 0,0 -1,0 -1,0 -1,-1 0,0 0,0 -1,0 0,0 0,0 0,0 0,0 0,0 -1,0l-1 0 0 0c0,0 -1,0 -1,0 -1,0 -1,0 -2,0 0,0 -1,0 -1,0l-2 1 1 -1 0 0c0,0 0,0 1,0 0,0 0,0 0,0 0,0 0,-1 0,-1 0,0 0,0 0,0l0 0 1 0c0,-1 -1,-2 -2,-3 0,-1 -1,-1 -1,-1l-2 -2c0,0 -1,0 -1,0 0,-1 -1,-1 -1,-1 0,0 -1,0 -1,0 -1,0 -1,-1 -1,-1l-4 -1c-1,0 -2,0 -2,-1 0,0 0,0 0,0 -1,0 -1,0 -1,0 0,0 -6,-3 -6,-3 4,1 7,3 11,4 1,0 3,1 4,1 1,0 1,1 2,1 0,0 0,0 1,0 0,0 0,0 0,1 1,0 1,0 1,0 0,0 1,1 1,1 0,0 0,0 0,0 0,0 0,0 0,0 0,0 0,0 1,1l0 0 0 0 0 0c0,1 -1,0 0,1l0 1 0 0c1,0 2,2 2,2l4 0c1,0 1,1 1,1 1,0 1,0 1,1 0,0 0,0 0,0l0 0 0 0c0,0 1,0 1,0 0,0 -1,1 -1,1 0,0 0,0 0,0 0,0 0,0 0,0l0 1 -1 0c0,0 -1,1 -1,2 0,1 0,1 0,2 0,0 0,1 -1,1 0,1 0,2 0,3 0,0 -1,1 -1,2 0,0 0,0 0,0 0,2 0,0 1,2 0,0 0,1 0,1 0,0 0,0 1,0l0 0 0 0c0,1 0,1 0,2 0,0 0,0 0,1 0,0 0,0 1,0 0,0 0,0 0,0l0 0 0 0c0,1 0,1 0,2 0,0 0,0 0,1 0,0 0,0 0,1l0 0 0 0 0 0 0 0c0,0 0,0 0,1 0,0 0,0 0,0 0,1 0,1 0,1 0,1 0,2 -1,2 0,1 0,1 0,1 0,0 0,0 0,1 0,0 0,0 0,0 0,0 0,1 0,1 0,1 0,1 0,2 0,0 0,0 0,1 0,0 0,0 -1,0 0,1 0,1 0,1 0,0 0,0 0,0 0,0 0,1 0,1l0 0c-1,2 -1,1 -1,2 0,0 0,0 0,0 0,1 0,1 0,1 0,0 0,0 0,0 0,0 -1,0 -1,0 0,0 0,0 0,0 0,1 0,1 0,1l0 0 -1 1c0,1 0,1 0,1 0,1 0,1 0,1 0,0 -1,0 -1,0 0,1 0,1 0,1 -1,1 -2,1 -2,2 -1,0 -1,0 -1,0 0,0 0,0 0,0 -1,0 -1,0 -1,0 0,1 -1,1 -2,1 0,0 -1,1 -1,1 0,0 0,1 0,1 -1,0 -1,0 -1,0l0 0 0 0c0,0 0,0 0,1 0,0 0,0 0,0 -1,0 -2,1 -2,1 -1,0 -1,0 -1,0 -1,0 -1,0 -1,0 0,0 -1,0 -1,0 0,0 -1,1 -2,1l0 0 0 0c0,0 0,0 0,0 0,0 -1,0 -1,0z"/>
   <path fill="#020001" d="M77 109c-1,-1 -3,0 -4,0 0,0 0,0 -1,0 -1,0 -2,-1 -3,-1l0 0c0,0 0,0 0,0l-1 0 0 0c-1,-1 -1,-1 -2,-1 0,0 -1,0 -1,0 1,1 2,2 3,2 0,0 1,1 1,1l0 0 0 0c0,0 0,0 1,0 0,0 0,0 0,0 0,0 0,1 0,1 0,0 1,0 1,1 0,0 0,0 0,0 1,0 1,0 1,0 0,1 0,0 1,1 0,0 0,0 0,0 0,0 0,0 0,0 0,0 0,0 1,0 0,1 0,0 0,0l0 0 1 0c0,0 0,0 0,0l0 0 0 0c0,-1 -1,-1 -1,-1l0 0c0,0 1,0 1,0 0,0 0,0 0,0 0,0 0,0 0,0l0 0 0 0c0,0 0,0 0,0 0,0 0,0 0,0l0 -1c0,0 0,0 0,0 0,0 0,0 0,0 0,0 0,0 1,0 0,0 0,0 0,0 0,0 0,0 1,0l0 0 0 0c0,0 0,0 0,0 0,0 0,0 0,-1l0 0c0,0 0,0 1,0 0,0 0,0 1,0 0,0 1,-1 1,-1 0,0 1,0 1,-1 0,0 4,-2 4,-2 0,0 -4,2 -5,2 0,0 -1,0 -2,0 0,0 0,0 0,0 -1,0 -1,0 -1,1z"/>
   <path fill="#647432" d="M86 7c-1,-1 -1,-3 -1,-4 -1,-1 -1,0 -1,1 1,7 1,23 3,29 1,7 1,13 3,20 1,3 3,1 3,-1 -1,-4 -2,-7 -3,-13 -1,-8 -2,-16 -3,-24 -1,-3 -1,-5 -1,-8z"/>
   <path fill="#62402B" d="M91 101c-2,0 -4,0 -5,0 -1,0 -1,0 -2,0 0,0 1,0 1,1 0,0 -1,1 -2,1 1,0 2,0 2,0 2,-1 5,-1 6,-2z"/>
   <path fill="#C48655" d="M94 91c-7,7 7,6 8,-2 0,-1 -1,-2 -2,-3 0,-2 -1,-2 -2,-2 0,1 -2,6 -4,7z"/>
   <path fill="#B1764A" d="M75 113c0,-1 -1,-1 -1,-1l0 0 0 0 0 0c0,0 1,0 1,0 0,0 0,0 0,0 0,0 0,0 0,0l0 -1c0,0 0,0 0,0 0,0 0,0 0,0 0,0 0,0 0,0l0 0 0 0c0,0 0,0 1,0 0,0 0,0 0,0 0,0 0,0 1,0 0,0 0,0 0,-1l0 0 0 0c0,0 0,0 1,0l0 0 0 0c0,0 0,0 0,0 0,0 0,0 1,0 0,0 0,-1 0,-1 1,0 1,0 1,0 0,0 0,0 0,0 1,0 1,0 1,-1l1 0c0,0 0,0 0,0 0,0 1,0 1,0 0,1 0,1 0,2 0,0 0,0 -1,0 0,0 0,0 0,0l0 1 0 0c0,0 0,0 -1,0 0,0 0,0 0,0 0,0 0,0 0,1 0,0 0,0 0,0 0,0 -1,0 -1,1 0,0 0,0 0,0 0,1 -1,0 -1,1l-2 1 0 0c0,0 -1,0 -1,0 -1,0 -2,-1 -2,-1 0,0 0,0 0,0 0,0 0,0 0,0 0,0 0,0 0,0 0,0 0,0 0,0 0,0 0,0 0,0l0 0 0 0c0,-1 0,-1 0,-1l0 0 1 0c0,0 0,0 0,0z"/>
   <path fill="#B2BB6A" d="M113 57c0,1 0,1 0,2 0,2 0,1 0,3 0,1 0,3 0,4 1,2 -1,6 2,5 0,-1 0,-3 0,-5 0,0 0,-2 0,-2 0,0 0,0 0,0 0,-1 0,0 0,-2 0,0 0,-1 0,-1 0,-1 0,-2 0,-3 0,-2 -1,-4 -1,-5 -1,-6 -1,-16 0,-23 2,-4 0,-2 -1,-1 0,2 -1,8 -1,9 -1,6 1,13 1,19z"/>
   <path fill="#231F20" d="M71 82c-1,3 -3,10 -12,9 0,0 1,0 1,0 10,-2 7,-5 10,-10 0,0 0,0 0,0 1,0 1,0 1,0 0,-1 0,-1 0,-1 1,0 1,-1 2,0 0,0 1,0 1,1 1,2 2,3 3,5 0,1 1,1 2,2l0 0 0 0c0,0 0,0 0,0l0 0 0 0c0,0 -1,0 -1,-1 -1,0 -2,-1 -2,-3 -1,0 -2,-2 -2,-3 -1,-1 -3,0 -3,1z"/>
   <path fill="#B1764A" d="M79 101c0,0 0,0 0,0 0,0 1,0 1,0 0,0 0,0 1,0l0 0 0 0c0,0 0,0 0,0 0,0 0,0 0,0 0,1 -1,1 -1,1 0,0 0,0 0,0 0,0 -1,-1 -1,0 0,0 0,0 -1,0 0,0 0,0 0,0 0,0 0,0 0,0 0,0 0,0 0,0l0 0 0 0 0 0c-1,0 -2,0 -2,0 -1,0 -2,0 -3,0 -1,0 -1,0 -2,0 0,0 -1,0 -2,0 0,0 -1,-1 -1,-1 0,0 0,0 0,0 0,-1 2,-1 3,-1 1,0 1,0 2,0 0,0 0,0 0,0 0,0 1,0 1,0 0,0 0,0 0,0 0,0 0,0 0,0 0,0 1,0 1,0 1,0 1,-1 2,-1 0,0 0,0 1,0 0,0 0,0 1,0 0,1 0,1 0,1 0,0 1,0 1,0 0,0 1,0 2,0l0 0 0 0 0 0c0,1 -1,1 -1,1 0,0 0,0 0,0 0,0 -1,0 -1,0 0,0 0,0 0,0 0,0 -1,0 -1,0z"/>
   <path fill="#C48655" d="M93 77l0 0c0,0 1,0 1,0 0,0 0,1 0,1 0,0 0,0 0,0 0,1 -1,0 -1,0 0,0 0,0 0,0 0,0 0,1 0,1l0 0 0 0c-1,-1 -1,0 -1,0 0,0 -1,0 -1,0 0,0 -1,0 -1,0 -1,0 -3,-1 -3,-1 0,0 0,0 0,0 0,-1 0,-1 -1,-1l0 0 0 0c0,0 0,0 0,0 0,0 0,0 0,0 1,0 1,0 1,-1 0,0 0,0 0,0l0 0 0 0c0,0 1,0 1,0 0,-1 0,-1 0,-1l0 0 0 0c1,0 2,0 3,1 0,0 1,0 2,0l0 0 0 0c0,0 0,0 0,0 0,0 0,0 0,0 0,0 0,0 0,0 -1,0 -1,0 -1,0 0,0 1,1 1,1z"/>
   <path fill="#935F38" d="M113 93c0,0 0,0 0,0l0 0c0,0 -1,-1 -1,-1l0 0c-1,-1 -1,-3 -1,-4 0,0 0,0 0,0 0,0 0,0 0,-1 0,0 0,0 0,0 0,-1 0,-2 1,-2 0,-1 0,-1 0,-2 0,-1 0,-1 0,-2 0,-1 0,-1 0,-1 0,-1 1,-1 1,-1 0,-1 1,-1 1,-2 0,0 0,0 0,-1 1,0 1,0 1,0 0,0 0,0 0,-1 0,0 2,-1 3,-1 0,0 0,0 0,0 3,0 5,1 5,4 0,1 -1,2 -1,3 -1,2 -2,5 -3,8 -1,1 -2,2 -3,2 0,1 -2,2 -3,2z"/>
   <path fill="#E6E7E8" d="M76 102c-1,0 -4,0 -4,0 1,0 3,0 3,1l0 1c-1,0 -1,0 -1,0 -1,0 -3,0 -4,-1 -1,0 -1,0 0,0 -1,0 -1,0 0,0 0,1 1,1 1,1 2,0 14,0 12,-2 -1,0 -1,0 -2,0 0,0 0,0 -1,0 0,0 -1,0 -2,0l-2 0z"/>
   <path fill="#C48655" d="M73 105l0 0c0,0 0,0 -1,0 0,0 0,0 0,0 0,0 0,0 0,0 0,0 0,0 0,0 0,-1 1,-1 1,-1 1,0 2,0 2,0 1,0 2,0 3,0 0,0 1,0 1,0 1,1 1,0 1,1 1,0 1,0 2,-1 0,0 0,0 1,0l0 0 0 1c0,0 0,0 0,0 0,0 0,0 0,0 -1,0 -1,1 -2,1 -1,0 -2,1 -3,0 0,0 -1,0 -1,0 0,0 0,0 -1,0 0,0 0,0 -1,0 -1,0 -2,0 -3,-1l0 0 0 0c0,0 0,0 0,0 0,0 0,0 0,0 1,0 1,0 1,0z"/>
   <path fill="#B1764A" fill-opacity="0.501961" d="M118 85c0,1 -2,4 -2,4 -1,1 -4,-1 -4,1 -1,1 0,3 1,3 1,0 3,-1 3,-2 1,0 2,0 3,-2 1,-3 2,-6 3,-8 0,-1 1,-2 1,-3 1,-5 -8,-6 -9,1 2,-4 5,-3 6,-2 1,0 0,2 0,5 -1,1 -1,3 -2,3z"/>
   <path fill="#231F20" d="M58 80c0,0 0,0 0,0 0,0 0,0 0,0 0,0 0,0 0,0 -1,0 -1,0 -1,0 0,0 -1,0 -1,0l0 0 0 0c0,-1 0,-1 0,-1 0,0 0,0 0,0l0 0 0 0c1,0 1,0 1,-1 1,0 1,0 1,0 0,0 1,0 2,0l0 0 3 0 0 1c1,0 2,0 2,0l0 0 1 1 0 0c0,0 0,0 0,0l0 1 0 0c-1,0 -1,0 -1,0l1 0 -2 0c-1,0 -2,0 -3,0 -1,0 -2,0 -3,0l-1 0 1 -1c0,0 0,0 0,0z"/>
   <path fill="#B1764A" d="M80 93c-1,-1 -4,-1 -5,-1l-1 0c0,0 0,0 -1,0 0,0 -1,0 -1,-1 0,-2 0,-2 2,-3 0,0 2,-3 3,0l1 0 0 0 0 0c0,2 0,2 2,2 0,0 5,2 2,2l0 0c0,0 0,0 0,0 0,0 -2,0 -2,1zm-5 -10c0,-1 -1,-1 -2,0 -1,2 -1,5 -2,6 0,1 0,1 0,2 -1,4 2,3 4,2 1,0 1,0 2,0 0,0 2,0 2,0 1,0 3,1 3,1l1 0c2,0 3,-2 2,-3 -1,0 -1,0 -2,0 0,-1 -1,-1 -2,-1 -1,0 -2,-1 -3,-2 -1,-2 -2,-3 -3,-5zm1 12c0,0 2,-1 0,0z"/>
   <path fill="#373435" d="M115 86c0,0 0,0 0,0 0,0 0,0 0,0 -1,0 0,-2 0,-2 0,0 0,-1 0,-1 0,0 0,0 0,-1 0,0 -1,1 -1,1 0,1 0,1 -1,1 0,1 0,1 0,1 0,0 -1,0 -1,0l0 0 0 0c0,-1 0,-2 1,-2 0,-1 0,-1 0,-1 0,0 0,0 1,0 0,-1 0,-1 0,-1 1,0 2,-1 2,0 0,0 0,0 0,0 1,1 0,3 0,4 0,1 0,2 -1,2 0,0 0,0 0,0 0,1 0,1 0,1 0,0 0,-1 0,-1l0 0 0 -1c0,0 0,0 0,0z"/>
   <path fill="#73833D" d="M103 65c0,-1 0,-2 0,-3 0,-2 0,-4 0,-6 0,-3 2,-16 1,-17 -1,1 -1,7 -1,8 -1,7 -2,7 -2,13 1,1 0,4 0,4 1,1 1,1 2,1z"/>
   <path fill="#C48655" d="M105 86c-2,2 -5,-1 -4,-4 1,-1 2,-3 3,-3 1,0 1,0 2,0 0,0 1,0 2,0 2,1 0,4 -1,5 -1,1 -2,1 -2,2z"/>
   <path fill="#231F20" d="M87 75c-3,0 -6,0 -10,0l0 0 0 0c1,0 1,0 2,-1 0,0 1,0 2,0l0 0 0 0c0,0 1,-1 1,-1 0,0 0,0 0,0 0,0 0,0 0,0 1,0 1,0 2,0 0,0 1,0 2,0 0,0 1,-1 2,0 0,0 0,0 1,0 0,0 0,0 0,0 0,0 0,0 0,0 0,0 1,0 1,0 1,0 1,0 2,0 0,1 0,1 1,1 0,0 1,0 1,0 0,0 0,0 0,0l0 0 0 0c0,0 0,0 0,0 0,0 -1,0 -1,0 0,0 -1,0 -1,0 -1,0 -3,1 -5,1zm-11 6l0 0 0 0c0,0 0,0 0,0 0,0 0,-1 0,-2 1,-2 2,-3 4,-3 2,-1 5,-1 8,-1 0,0 0,0 0,0l0 0 0 0c0,0 0,0 0,0 -1,1 -2,1 -3,1 0,0 -1,0 -1,1 0,0 0,0 0,0 0,0 -1,0 -1,0 0,0 0,0 0,0 -1,0 -2,0 -3,1 0,0 0,0 0,0 0,0 0,0 0,0 0,0 0,0 0,0 0,0 -1,1 -1,1 0,0 0,0 0,0 0,0 0,0 0,0 0,0 0,0 0,0 0,0 0,0 0,0 -1,0 -2,1 -3,2z"/>
   <path fill="#373435" d="M118 83c1,0 0,-1 0,-1 0,0 0,-1 1,-1 0,0 0,0 0,0 0,-1 0,-1 0,-2 0,0 0,-1 0,-1 0,0 -1,0 -2,0 0,0 0,0 0,0 0,0 0,0 0,0l-1 1 0 -1c1,0 1,-1 2,-1 0,0 0,0 1,0 0,0 1,0 1,0l0 0 0 0c0,0 0,0 0,1 0,1 0,3 -1,4 0,1 1,1 0,2 0,0 0,1 -1,1l0 0 0 0c0,1 0,1 0,0 0,0 0,0 0,0 0,-1 0,-1 0,-2l0 0 0 0z"/>
   <path fill="#4C5A26" d="M78 27c-1,2 -1,25 0,26 2,1 4,4 6,5 1,1 3,1 5,0 2,0 2,-2 -1,0 0,0 -1,0 -4,-1 -2,-1 -2,-3 -3,-6 0,-4 -2,-10 -3,-15 0,-1 1,-11 0,-9z"/>
   <path fill="#B1764A" d="M63 94c0,0 1,0 1,0l0 0 0 0c0,0 0,0 0,0 0,0 0,0 0,0l0 1 0 0c0,0 0,0 0,0 0,0 -1,0 -1,0 0,1 0,1 0,1 0,0 -1,0 -1,0 0,0 0,0 0,0 0,0 -1,0 -1,0 0,0 0,0 0,0 0,0 -1,0 -1,0l0 0 0 0c0,0 0,0 0,1 0,0 0,0 0,0 0,0 0,0 0,0 -1,0 -1,0 -1,0 0,0 0,0 0,0 0,0 -1,0 -1,0 0,0 0,0 0,0 0,0 0,0 0,0 0,0 0,0 0,0 0,0 0,0 0,0 0,0 0,0 0,0l-2 1c-1,0 -1,0 -1,0 0,0 0,0 -1,0 0,0 0,0 0,0l0 0 0 0c0,0 0,-1 0,-1 -1,0 -1,-1 -1,-1 0,0 0,1 0,1 0,0 0,0 0,1 0,0 0,0 0,0l0 1 0 0c0,0 0,0 0,0 0,0 0,0 0,0 0,0 -1,0 -1,0l0 0 0 0 0 0c0,0 0,-1 0,-1 0,-1 0,-1 0,-2 0,-2 -1,-4 -1,-6 0,-2 0,-4 0,-5l0 -2c1,0 0,2 1,2 0,0 0,1 0,1 0,0 0,1 0,2 0,0 1,0 1,1 0,0 0,0 1,0 0,0 0,1 0,1 0,0 0,0 0,0l1 0 -1 0 0 0c0,0 0,0 -1,0 0,0 0,0 0,0 0,0 1,1 1,1 0,1 1,1 2,2 1,0 2,1 3,0l0 0 0 0c1,0 1,0 1,0 0,0 0,0 0,0 0,0 0,0 0,0 1,0 1,0 1,0 0,-1 0,-1 0,-1 -1,0 -1,0 -2,0 0,0 -1,0 -1,-1l0 0 0 0c0,0 0,0 0,0 1,0 1,0 1,0 0,0 0,0 1,0 0,0 0,0 0,0 1,1 1,0 2,0 0,0 0,0 1,0l0 0 0 0 0 1c0,0 -1,0 -1,0 0,0 0,0 0,0 0,1 1,2 1,2l0 0 0 0c0,0 0,0 0,0zm-10 -11c0,0 1,0 2,0 0,-1 0,-1 1,0 0,0 0,1 0,1 1,0 1,0 1,0 0,0 0,0 0,0 0,0 1,0 1,0 0,-1 1,0 1,0 0,0 0,0 1,0 0,0 0,0 0,0l0 0 0 0c1,0 2,0 3,0 1,0 2,0 2,0 1,1 2,1 2,2 0,1 -1,2 -1,3 -2,1 -3,1 -5,1l0 1 0 -1c0,0 1,0 1,0 0,-1 0,-1 0,-1 0,0 -1,0 -1,0 -1,0 -2,0 -2,0 -1,0 -1,0 -1,0 0,0 -1,0 -1,0 0,0 -1,-1 -1,-1 0,0 0,0 -1,0 0,0 0,0 0,0l0 1 0 -1c0,0 -1,-1 -1,-2l0 0 0 0c0,0 0,0 0,0 -1,-1 -1,-1 -1,-1 0,-1 0,-1 0,-1l0 -1 0 0c0,0 0,0 0,0 0,0 0,0 0,0z"/>
   <path fill="#B1764A" d="M84 78c1,0 1,0 2,0 0,0 0,0 0,0 0,-1 0,-1 0,-1 0,0 -1,0 -1,0 0,0 0,0 0,0 0,-1 0,-1 0,-1 1,0 1,0 1,0 0,0 1,0 1,0l0 0 0 0 0 0c0,0 0,0 0,0 0,0 0,0 0,0 0,0 0,1 0,1 0,0 0,0 0,0 0,0 0,0 0,0 0,0 0,0 0,0 1,0 0,0 0,0 0,0 0,1 0,1l0 0 0 0c0,0 0,0 1,0 0,1 2,0 3,0 0,0 1,0 2,0 0,0 1,0 1,0 0,0 0,0 0,0 0,0 -1,0 -1,0 0,-1 0,-1 0,-1l-1 -1 0 0c0,0 0,0 0,0 0,0 0,0 0,0 1,0 1,0 1,0 0,0 0,0 0,0 0,0 0,0 0,0l0 0 0 0c0,0 1,1 2,1 0,0 1,2 1,2l0 0 0 0c0,0 0,0 0,0 0,0 -1,0 -1,1 0,0 -1,0 -1,-1 -1,0 -2,0 -3,0 -1,0 -2,0 -2,0 -2,0 -3,0 -4,0 -1,0 -2,0 -3,0l0 0 0 0 0 0c-1,0 -1,0 -1,0 0,0 0,0 0,0 0,0 0,0 0,0l0 0 0 0c1,0 1,0 1,0 0,-1 1,-1 1,-1 0,0 1,0 1,0z"/>
   <path fill="#869849" d="M73 49c-1,2 -1,3 -2,5 1,0 1,-1 2,-1 1,0 2,0 2,-1 1,-1 1,-6 1,-7 0,-2 0,-4 0,-7 0,0 0,-3 0,-3 0,0 -1,3 -1,5 0,3 -1,6 -2,9z"/>
   <path fill="#865D42" d="M92 102c0,0 0,0 0,0 0,0 0,0 0,0z"/>
   <path fill="#865D42" d="M92 102c0,0 0,0 0,0 0,0 0,0 0,0z"/>
   <path fill="#865D42" d="M84 98c0,0 0,0 0,0z"/>
   <path fill="#935F38" d="M90 101c0,0 -1,0 -2,0 -1,0 -1,0 -2,0 0,0 0,0 -1,0l0 0 0 0c0,0 1,0 1,0 0,0 1,0 1,0 1,0 2,0 2,0 0,0 0,-1 0,-1 0,0 0,0 0,0 -1,0 -2,0 -2,-1 0,0 0,0 1,0 0,0 0,0 0,0 0,0 -1,0 -1,0 0,0 -1,0 -1,0 -1,0 -2,0 -3,0 0,-1 0,-1 0,-1 0,0 -1,0 -1,0 0,0 0,0 -1,0 0,0 -1,0 -1,0 0,0 1,0 1,0 0,0 1,0 2,0l0 0 0 0 1 0 1 0 0 0c0,0 0,0 0,0l0 0 0 0 0 0c0,0 0,0 0,0l1 0 1 0 0 0 1 0 0 0 0 0 0 1 1 -1 0 0c0,0 1,0 1,0 0,0 0,0 0,0l0 0 0 0c0,1 0,1 0,1 0,0 0,0 0,0 0,0 0,0 0,0 0,0 0,0 0,0l0 0 0 0c0,0 1,0 1,0 0,0 0,0 0,0 1,1 1,1 2,2l0 0 0 0 0 0c0,1 0,1 0,1 0,0 0,0 0,0l0 0 0 0c0,0 0,0 0,0 0,1 0,1 0,1 -1,1 -1,1 -1,1 0,0 0,0 0,0 0,0 0,0 0,0 0,0 0,1 0,1 0,0 -1,0 -1,0 0,0 0,0 0,0 0,0 0,1 0,1 0,0 0,0 -1,0 0,0 0,0 0,1l0 0 0 0c0,0 0,0 0,0l0 0 0 0c0,0 -1,0 -1,1 0,0 -1,0 -1,0 0,0 0,0 0,1 0,0 0,0 0,0l-1 0c0,0 0,0 0,0 0,0 0,0 0,0l0 1 0 0c0,0 0,0 0,0l0 0 -2 0 0 0c0,0 0,0 0,0l0 0 0 0c0,0 0,0 0,0l0 0c0,1 0,1 0,1l0 0 0 0c0,0 0,0 0,0 0,0 0,0 0,0 -1,0 -1,0 -1,0 0,0 -1,0 -1,0l0 1 0 -1c0,0 0,0 0,0 1,0 1,0 1,0 0,0 0,-1 0,-1 0,0 0,0 0,0 1,0 1,-1 1,-1 0,0 1,-1 1,-1 0,0 0,0 0,-1 1,-1 1,-1 1,-3 0,0 0,0 0,-1 0,-1 0,-1 1,-1 0,0 1,0 1,0 1,0 1,-1 1,-1z"/>
   <path fill="#B1764A" d="M69 110c0,0 -1,-1 -1,-1 -1,0 -2,-2 -2,-2 -1,0 -2,0 -2,0 1,2 1,3 1,4l2 2c0,0 0,0 0,0 0,0 0,0 0,0 0,1 0,0 0,1 0,0 1,0 1,0 1,0 2,1 3,1 0,0 0,0 1,0 0,-1 0,-1 1,-1 0,1 0,0 0,1 1,0 1,-1 1,-1 1,1 0,1 1,1 0,0 1,0 2,0 0,0 0,0 0,0l0 0c0,0 -1,0 -1,0 -1,0 -2,-1 -2,-1 0,-1 0,-1 0,-1 0,0 0,0 0,0 -1,0 0,0 -1,0 0,-1 -1,0 -1,-1 -1,0 -1,0 -2,-1 0,-1 0,-1 -1,-1z"/>
   <path fill="#FDFDFD" d="M70 102c-1,0 -1,1 -1,1 0,1 2,1 2,1 1,0 2,0 3,0 0,0 0,0 1,0l0 -1c0,-1 -3,-1 -3,-1 -1,0 -2,0 -2,0z"/>
   <path fill="#C48655" d="M83 89c2,1 2,1 4,1l1 0 0 0 0 0c2,0 3,0 4,-1 1,0 1,0 1,0 0,0 1,0 1,-1l0 0 0 0 0 0c1,0 1,-1 2,-2 0,-1 0,-2 0,-4l0 0c0,0 0,0 0,0 0,0 -2,1 -2,1l0 0 0 0c-2,0 -2,1 -5,1 0,0 -3,1 -6,0 -1,0 -1,0 -2,0 0,0 0,-1 -1,-1 0,0 0,0 0,0l0 0 0 0 0 0c0,0 0,0 -1,0l0 -1c-1,0 -1,-1 -1,-1 -1,0 -1,0 -1,0 0,0 1,0 0,0 0,0 0,0 0,0l0 1c-1,2 3,7 6,7z"/>
   <path fill="#C48655" d="M90 81c0,0 1,0 1,0 0,0 0,0 0,0 0,0 0,0 0,0 1,0 1,1 1,1l0 0 0 0c0,0 0,0 -1,0 0,0 0,0 0,0 0,1 0,1 -1,1 0,0 -2,0 -3,0 0,0 -3,-1 -3,-1l0 0 0 0c0,0 0,0 0,0 0,0 1,0 1,0 0,0 1,0 1,0 0,0 1,0 1,-1l0 0 0 0c0,0 1,0 1,0 1,0 1,0 1,0 1,0 1,0 1,0l0 0 0 0z"/>
   <path fill="#7A4E32" d="M92 82l0 0 0 0c-1,-1 -1,-1 -2,-1 0,0 -1,0 -2,0 0,0 -1,0 -1,1l0 0c-1,0 -3,0 -3,0 0,0 5,1 6,1 1,-1 1,-1 1,-1 1,0 1,0 1,0zm-3 -2c1,0 1,0 2,0l0 0c1,0 1,0 2,0 1,0 1,0 2,0 -1,0 -2,-1 -2,-1 1,0 4,0 3,0 0,1 0,2 0,3l0 0 0 0c0,0 0,0 0,0 -2,2 -10,3 -13,2 -1,0 -1,0 -2,0 0,0 0,0 -1,-1 0,0 0,0 0,0l0 0 0 0 0 0c0,0 0,0 0,0l-1 0 0 -1c-2,1 0,-1 -2,-1 0,0 0,0 0,0l0 1 0 0c0,0 0,0 -1,0 0,0 0,-1 0,-1 0,0 0,0 0,0 0,0 0,0 0,0 0,-1 3,-2 4,-3 1,-1 2,-1 3,-1 0,0 0,0 0,0 0,0 0,0 1,0 0,0 0,-1 0,-1 0,0 1,0 1,0 1,0 2,0 3,-1l0 0 1 0 -1 0c0,0 0,1 0,1 0,0 -1,0 -1,0l0 0 0 0 0 0c-1,1 -3,0 -1,1 0,0 0,1 0,1 -1,0 -1,0 -2,0 0,0 0,0 0,0l0 0 0 0c0,0 -1,0 -1,0 -1,1 -1,1 -3,2 0,1 2,2 2,2 0,0 -1,-1 -1,-1 2,0 7,2 8,-1z"/>
   <path fill="#B1764A" d="M64 79c0,0 0,0 0,0 0,0 0,0 0,0l0 0 -1 0 -3 -1c-1,0 -1,0 0,-1l0 0 1 0 0 0c0,0 1,0 2,0l0 0 0 0c0,0 0,0 0,0 0,0 0,0 0,0 0,0 1,0 1,1 0,0 0,0 0,0 0,0 0,0 0,0 0,0 0,0 0,0 0,0 1,1 1,1 1,0 1,0 1,0l0 0 0 0c0,0 0,0 0,0 0,0 0,0 0,0 0,0 -1,0 -1,0 0,0 -1,0 -1,0z"/>
   <path fill="#935F38" d="M52 99c0,1 0,2 0,3 0,0 0,0 0,0l0 -1c0,0 0,-1 0,-1 1,-1 1,0 1,-1 0,0 0,-1 0,-1 0,-1 0,-1 1,0 0,0 0,0 0,0 0,1 0,1 0,1 1,1 0,0 1,0 1,0 0,-1 2,-1 1,0 0,0 1,-1l1 0 1 0 0 0c-1,0 -1,-1 -2,0 0,0 0,0 0,0 0,0 0,0 0,0l-3 1c0,0 -1,0 -1,0 0,0 0,-1 0,-1 -1,-2 -1,0 -1,1l0 1c-1,0 0,0 -1,0z"/>
   <path fill="#C48655" d="M73 88c-4,5 0,4 3,4 1,0 2,1 4,1 5,0 4,-2 1,-3 -2,0 -2,0 -3,-2 0,0 -1,-1 -1,-1 -1,-1 -3,-1 -4,1z"/>
   <path fill="#B1764A" d="M55 88c1,1 6,2 7,2 0,0 1,-2 -1,-2 -3,0 -1,1 -4,0 -1,0 -2,0 -2,0z"/>
   <path fill="#C48655" d="M85 94c1,0 3,2 5,2 -1,-1 -1,-1 -1,-2 0,0 0,-1 0,-1 0,0 0,1 0,1 -2,-2 -3,-2 -3,-1 0,0 0,1 -1,1z"/>
   <path fill="#8B9A53" d="M67 56c0,0 1,0 1,0 0,0 -1,0 -1,0 0,-1 0,-1 0,-1 -7,-4 -6,-5 -7,-10 0,-3 0,-1 0,1 -1,4 0,16 7,10z"/>
   <path fill="#935F38" d="M63 94l1 0c0,0 0,0 0,0l0 1c0,0 -1,0 -1,0 0,1 0,0 0,0 -1,1 -1,1 -1,1 -1,0 -1,0 -2,0 1,0 1,0 1,0 1,1 1,0 1,0 0,0 0,0 1,0 0,0 0,0 0,0 1,0 0,0 1,0 1,0 1,0 1,0 1,0 1,-1 0,-1 0,0 0,0 0,0 0,-1 0,-1 -1,-1l0 0c0,0 0,0 -1,0 0,0 0,0 0,0z"/>
   <path fill="#77893E" d="M94 63c1,0 1,-1 1,-2 1,-1 2,-4 2,-6 0,0 0,-1 0,-1 0,1 0,1 0,2 0,0 -1,0 -1,0 0,1 0,2 0,3 0,1 -2,4 -2,4z"/>
   <path fill="#373435" d="M115 89c0,0 -1,0 -1,0 0,0 0,0 -1,-1 0,0 -1,-1 0,-1l1 -1c0,0 0,-1 0,-1 0,0 0,0 0,0 0,0 0,0 0,0l0 0 0 0c0,0 0,1 0,1 0,0 0,0 0,0 0,0 0,1 0,1 0,0 1,1 1,2 0,0 0,0 0,0 0,0 1,0 1,0 0,0 0,0 0,0 -1,0 -1,0 -1,0z"/>
   <path fill="#4B5429" d="M68 51c0,0 0,0 0,0 0,-1 0,-1 1,-1 0,0 0,0 0,0l1 -5c1,-1 1,-2 1,-3 0,-1 0,-2 1,-4 0,-2 1,-4 2,-6 0,-2 1,-4 2,-6 0,-1 0,-2 0,-3l0 0 2 -7c0,0 0,-1 0,-1 0,-1 1,-1 1,-2l0 -2c0,4 0,5 -1,9 0,2 -1,3 -1,4 0,1 0,2 0,3 0,1 -1,3 -1,4 0,1 0,2 -1,3 0,1 0,2 -1,3 0,2 -1,4 -1,6 -1,2 -1,3 -2,5 0,1 0,2 -1,2l0 1c0,1 0,2 -1,2 0,1 -2,1 -2,0 1,-1 1,-2 1,-2z"/>
   <path fill="#7A4E32" d="M56 80c1,0 1,0 2,0 0,0 0,0 0,0 0,0 0,0 0,0 2,1 4,1 6,0 0,0 0,0 0,0 1,0 2,0 2,0l-1 -1c0,0 0,0 -1,0 0,0 0,0 -1,0l0 0 0 0 1 0c0,0 0,0 0,0 0,0 0,0 0,0l0 0 0 0c0,0 1,0 1,0 0,0 1,0 1,0 0,0 0,0 0,0 0,0 0,0 0,0 0,0 0,0 -1,0 0,0 0,0 -1,-1 0,0 0,0 0,0 0,0 0,0 0,0 0,0 0,0 0,0 0,0 0,0 0,0 0,0 -1,-1 -1,-1 0,0 0,0 0,0 -1,0 -2,0 -3,0l0 0c-1,1 -1,1 0,1l0 0 0 0 0 0c0,0 -1,0 -2,1 0,0 0,0 0,0 -1,0 -1,0 -2,0 0,0 0,1 0,1zm-3 3c0,-4 4,-6 6,-6 0,0 1,0 1,0 1,0 3,0 4,0 0,0 0,0 0,0 0,0 1,0 1,0 0,0 0,1 0,1 1,0 1,0 1,0 1,0 1,0 1,0l0 0 0 0 0 0 0 0c1,0 1,0 1,1 0,0 0,0 0,1l0 0c0,0 0,0 1,0 0,0 0,1 0,1l0 0 0 0c0,1 0,1 0,2 -1,1 -1,2 -1,2 0,1 -1,3 -2,3 2,-2 1,-4 -6,-4 0,0 0,0 0,0 -1,0 -1,0 -1,0 0,0 -1,0 -1,0 0,0 -1,0 -1,0 0,0 0,0 0,0 -2,0 -2,-2 -3,-1 0,0 -1,0 -1,0z"/>
   <path fill="#A9B466" d="M101 43c0,0 -1,2 -1,2 -1,5 -2,2 -2,7 0,4 0,7 -1,10l-1 1c0,0 0,0 0,0l4 1c0,-2 0,-4 0,-6 0,-1 0,-3 1,-4 0,-1 2,-11 0,-11z"/>
   <path fill="#A3AF5E" d="M94 56c0,0 0,0 -1,-1 -1,0 -1,3 -2,4 -2,3 -4,-1 -5,1l6 2c0,0 0,0 0,0 1,-1 2,-4 2,-6z"/>
   <path fill="#C48655" d="M72 90c0,0 2,-1 3,-1 1,0 1,0 1,1 0,1 0,2 -1,2 -2,0 -4,1 -3,-2z"/>
   <path fill="#B1764A" d="M65 82l-1 0c-1,0 -1,0 -1,0 -1,0 -1,0 -1,0 0,0 0,0 0,1 0,0 0,0 0,0 -1,0 -2,0 -2,-1 0,0 0,0 -1,0 0,0 0,0 0,0 0,0 -1,0 -1,0 0,-1 -1,-1 -1,-1l0 0 0 0c0,0 0,0 1,0 0,0 1,0 1,0 1,0 3,0 5,0 0,0 0,0 1,1l0 0 0 0z"/>
   <path fill="#C48655" d="M79 72l0 0 0 0 0 0zm5 -4c-1,0 -3,1 -3,2 -1,0 -1,1 -1,1 1,1 1,0 2,0 0,0 1,0 2,0 0,-1 2,-1 2,-1 0,-1 0,-1 0,-2 -1,0 -2,0 -2,0z"/>
   <line fill="none" stroke="#373435" stroke-width="3.16357" x1="45" y1="68" x2="45" y2= "68" />
   <path fill="#020001" d="M50 81c0,-1 -2,-5 0,-5 0,0 3,-1 4,-1 3,0 4,0 7,0 1,0 2,0 3,0 2,0 3,0 6,1 0,0 2,0 3,0 1,0 1,0 2,0 0,0 1,0 1,0 4,-1 9,-2 13,-2 3,0 6,0 9,1l0 0c2,0 9,-1 12,-2 1,0 3,0 4,1 1,1 1,1 0,2 -4,3 -12,2 -15,3 -1,1 -1,2 -1,3l0 0 0 2c-1,1 -1,2 -1,3 -1,2 -2,3 -5,4 -1,0 -3,0 -5,0 -4,0 -7,-1 -10,-5 -1,-1 -2,-4 -3,-5 -1,-1 -2,-1 -3,-1 -2,2 -1,7 -5,9 -2,2 -9,3 -12,0 -1,-1 -2,-3 -3,-4 0,-1 -1,-3 -1,-4zm46 1l0 0 0 0 0 0 0 0 0 0c0,-2 0,-4 -1,-5 -1,0 -1,0 -1,0l0 0c-3,-2 -11,-2 -15,-1l0 0c-1,1 -2,2 -3,3 0,2 2,6 3,8 1,0 1,1 2,1 1,1 2,1 4,2 1,0 1,0 2,0l1 0c4,-1 7,-1 8,-6 0,0 0,-1 0,-2l0 0c0,0 0,0 0,0zm-43 2c2,8 13,7 15,1 0,0 0,-1 0,-2 0,0 1,0 1,-1l0 0 0 0 0 0 0 0c0,-8 -15,-7 -17,-4 0,2 1,4 1,6z"/>
   <path fill="#373435" fill-opacity="0.419608" d="M96 75c1,0 1,0 2,0l0 0c1,0 4,0 7,-1 0,0 0,0 0,0 -1,0 -3,1 -5,1 0,0 0,1 -1,1 0,0 0,0 0,-1 0,0 -1,0 -3,0z"/>
   <path fill="#2D3119" fill-opacity="0.690196" d="M68 22c-3,15 -3,29 6,31 -1,0 -3,1 -3,1 -2,0 -5,-1 -6,-2 -1,0 -2,-1 -3,-2 -1,-3 -2,-10 1,-18 2,-2 3,-6 5,-10z"/>
   <path fill="#B1764A" d="M58 91c-1,0 -2,0 -3,-1 -1,0 -3,0 -2,1 0,2 5,4 6,3 1,0 2,0 2,-1 0,0 0,0 0,0 0,-1 0,-1 0,-1 -1,0 -2,0 -3,-1z"/>
   <path fill="#D2D3D5" d="M51 78c0,0 1,0 1,0 0,0 -1,0 -1,0 -1,0 -1,0 -1,0 0,0 0,0 1,0z"/>
   <path fill="#D2D3D5" d="M97 76c1,0 1,0 1,0 0,1 0,1 -1,1 0,0 0,0 0,-1 0,0 0,0 0,0z"/>
   <path fill="#4B4B4D" d="M53 84c1,3 3,5 6,6 -1,0 -4,-1 -5,-6 -1,-1 -1,-2 -1,-3 0,0 0,-2 0,-3 0,0 2,-1 3,-1 1,-1 3,-1 5,-1 2,1 4,1 6,2 -3,-3 -13,-2 -15,0 0,2 1,4 1,6z"/>
   <path fill="#4B4B4D" d="M93 76c-4,-1 -11,-1 -14,0l0 0c-1,1 -2,2 -3,3 0,2 2,6 3,8 1,0 1,1 2,1 1,1 2,1 4,2 2,0 7,0 9,-1 -3,1 -8,1 -11,0 -1,0 -1,-1 -2,-1 0,-1 -1,-1 -2,-2 -1,-1 -3,-5 -2,-7 0,-1 1,-2 2,-2l0 0c1,-1 2,-1 3,-1 2,0 3,0 4,0 3,0 5,0 7,0l0 0z"/>
   <path fill="#FFFBD6" d="M82 163c0,1 0,1 0,1 -1,-1 -1,-1 -1,-1l-3 1c0,0 0,0 0,1l0 0c-3,3 -10,4 -13,3 -2,0 -3,0 -4,-2 0,0 0,0 0,0 -1,0 -3,0 -4,0 -1,0 -1,0 -1,0 -7,2 -13,3 -20,3 -13,1 -24,-3 -32,-13l-1 0 0 0c0,-1 -1,-2 -2,-3 0,0 0,0 0,0 -1,-1 -1,-3 0,-4 1,-1 2,0 3,0 1,1 1,1 1,1 1,1 2,1 2,2 4,3 8,5 13,7 -4,-2 -7,-5 -9,-8 0,-1 -1,-1 -1,-2 0,0 0,0 0,0 -1,-1 -1,-2 0,-3 1,-1 3,-1 3,0 1,0 1,0 1,0 1,1 1,1 2,2 2,3 6,4 9,5 -1,0 -2,-1 -3,-2 -1,-1 -2,-2 -2,-3 -3,-1 -6,-3 -7,-5 -1,-1 -1,-2 -1,-3 -3,-2 -5,-4 -6,-6 -1,-1 -1,-3 -1,-4 0,0 0,0 0,0 -1,-1 -1,-1 -2,-2 -2,-2 -5,-7 -2,-10 0,0 1,0 1,0 0,-1 1,-1 1,-1 0,-2 -1,-5 0,-7 0,-2 1,-3 2,-4 0,0 1,0 1,0 2,-1 4,1 5,2 1,2 2,3 3,5 0,0 0,0 0,0 0,0 0,0 1,0 0,0 1,0 1,0 3,0 4,5 5,8 2,0 4,4 5,7 1,0 2,1 3,2 1,1 2,3 2,4 3,0 6,3 7,5 2,0 3,1 4,1 2,1 3,2 4,4 1,-1 2,-1 3,0 -1,-2 -1,-4 -1,-5 0,-1 0,-2 0,-2 0,-2 1,-3 2,-3 1,0 2,0 3,1 0,0 0,1 0,1 0,0 1,1 1,2 0,3 2,5 4,8 0,0 0,0 1,0 1,0 3,1 5,2 0,0 0,1 0,1 2,-2 6,-1 9,0 2,1 4,2 6,4 1,1 1,3 1,4 1,1 1,1 2,1l0 0 1 0c1,0 1,0 2,-1 0,-1 0,-3 1,-4 2,-2 4,-3 6,-4 3,-1 7,-2 9,0 0,0 0,-1 0,-1 2,-1 4,-2 5,-2 1,0 1,0 1,0 2,-3 4,-5 4,-8 0,-1 1,-2 1,-2 0,0 0,-1 0,-1 1,-1 2,-1 3,-1 1,0 2,1 2,3 0,0 0,1 0,2 0,1 0,3 -1,5 1,-1 2,-1 3,0 1,-2 2,-3 4,-4 1,0 2,-1 4,-1 1,-2 4,-5 7,-5 0,-1 1,-3 2,-4 1,-1 2,-2 3,-2 1,-3 3,-7 5,-7 1,-3 2,-8 5,-8 0,0 1,0 1,0 1,0 1,0 1,0 0,0 0,0 0,0 1,-2 2,-3 3,-5 1,-1 3,-3 5,-2 0,0 1,0 1,0 1,1 2,2 2,4 1,2 0,5 0,7 0,0 1,0 1,1 0,0 1,0 1,0 2,3 0,8 -2,10 -1,1 -1,1 -2,2 0,0 0,0 0,0 0,1 0,3 -1,4 -1,2 -3,4 -6,6 0,1 0,2 -1,3 -2,2 -4,4 -7,5 0,1 -1,2 -2,3 -1,1 -2,2 -3,2 3,-1 7,-2 9,-5 1,-1 1,-1 2,-2 0,0 0,0 0,0 1,-1 3,-1 4,0 1,1 1,2 0,3 0,0 0,0 0,0 0,1 -1,1 -1,2 -2,3 -5,6 -9,8 5,-2 9,-4 13,-7 0,-1 1,-1 2,-2 0,0 0,0 1,-1 1,0 2,-1 3,0 1,1 1,3 0,4 0,0 0,0 0,0 -1,1 -2,2 -2,3l0 0 -1 0c-4,5 -9,9 -15,11 -5,2 -11,2 -17,2 -6,0 -13,-1 -19,-2 -1,-1 -1,-1 -2,-1 -1,0 -3,0 -4,0 0,0 0,0 0,0 -1,2 -2,2 -4,2 -3,1 -10,0 -13,-3l0 0c0,-1 0,-1 0,-1l-3 -1c0,0 0,0 -1,1 0,0 0,0 -1,-1z"/>
   <path fill="#FFFBD6" d="M87 162c-1,0 -1,0 -2,0l0 1 -1 -1c0,0 0,0 -1,1 0,0 0,-1 -1,-1 0,0 0,1 0,1 -1,-1 -1,-1 -1,-1l-1 1 0 -1c-1,0 -1,0 -2,0 0,1 -1,1 -1,2l0 0 0 0c-3,3 -9,4 -12,3 -1,0 -2,0 -3,-1 0,0 0,-1 0,-1 -2,0 -4,0 -5,0 -1,0 -1,0 -1,0 -7,2 -13,3 -20,3 -12,1 -23,-3 -32,-12l0 0 0 0c-1,-1 -1,-2 -2,-3 0,0 0,-1 -1,-1 0,-1 0,-1 1,-2 0,-1 1,0 2,0 0,0 0,1 0,1 1,1 2,1 3,2 8,6 16,8 25,8 -3,0 -5,0 -7,-1 -6,-2 -10,-6 -13,-10 -1,0 -1,-1 -1,-1 0,0 0,-1 0,-1 -1,0 -1,-1 0,-1 1,-1 1,-1 2,0 0,0 0,0 0,0 1,0 1,1 2,1 3,4 7,6 11,7 2,0 3,0 5,0 0,0 -1,0 -1,-1 0,0 0,0 0,0 -3,-1 -6,-2 -8,-4 0,0 -1,-1 -1,-2 0,-1 0,-1 0,-1 -3,-1 -6,-3 -7,-5 -1,0 -1,-1 -1,-3 0,0 0,0 0,0 -3,-1 -5,-4 -7,-6 0,-1 0,-2 0,-3 0,0 0,0 0,0 -1,-1 -1,-2 -2,-3 -1,-1 -4,-6 -2,-8 0,0 0,0 0,-1 1,0 2,0 3,0 -1,-3 -2,-6 -1,-8 0,-1 1,-2 1,-3 1,0 1,0 1,0 2,0 3,1 4,2 1,1 2,3 3,4 0,1 0,1 0,2 1,-1 1,-1 2,-1 0,0 1,0 1,0 3,0 4,5 4,8 0,0 0,0 0,0 3,0 4,5 5,7 0,0 0,0 0,0 1,0 2,1 3,2 1,1 2,3 3,4 2,0 5,3 7,5 0,0 0,0 0,0 1,0 3,1 4,1 1,1 2,2 4,3 0,0 0,1 0,1 1,-1 2,-1 4,0 0,0 0,0 0,0 -1,-2 -1,-4 -1,-6 0,-1 0,-2 0,-2 0,-1 0,-2 1,-2 1,0 2,0 2,0 0,1 0,1 0,1 0,1 1,1 1,2 0,3 2,6 4,8 1,1 1,1 1,1 2,0 4,1 5,2 0,0 1,1 1,1 2,-2 6,-1 8,0 2,1 5,2 6,4 1,1 1,2 1,4 -1,0 -1,0 -1,0 1,0 3,1 4,1l0 0 0 1 1 -1 0 0c1,0 3,-1 4,-1 0,0 0,0 -1,0 0,-2 0,-3 1,-4 1,-2 4,-3 6,-4 2,-1 6,-2 8,0 0,0 1,-1 1,-1 1,-1 3,-2 4,-2 1,0 1,0 2,-1 2,-2 4,-5 4,-8 0,-1 1,-1 1,-2 0,0 0,0 0,-1 0,0 1,0 2,0 1,0 1,1 1,2 0,0 0,1 0,2 0,2 0,4 -1,6 0,0 0,0 0,0 2,-1 3,-1 4,0 0,0 0,-1 0,-1 2,-1 3,-2 4,-3 1,0 3,-1 4,-1 0,0 0,0 0,0 2,-2 5,-5 7,-5 1,-1 2,-3 3,-4 1,-1 2,-2 3,-2 0,0 0,0 0,0 1,-2 2,-7 5,-7 0,0 0,0 0,0 0,-3 1,-8 4,-8 0,0 1,0 1,0 1,0 1,0 2,1 0,-1 0,-1 0,-2 1,-1 2,-3 3,-4 1,-1 2,-2 4,-2 0,0 0,0 1,0 0,1 1,2 1,3 1,2 0,5 -1,8 1,0 2,0 3,0 0,1 0,1 0,1 2,2 -1,7 -2,8 -1,1 -1,2 -2,3 0,0 0,0 0,0 0,1 0,2 0,3 -2,2 -4,5 -7,6 0,0 0,0 0,0 0,2 0,3 -1,3 -1,2 -4,4 -7,5 0,0 0,0 0,1 0,1 -1,2 -1,2 -2,2 -5,3 -8,4 0,0 0,0 0,0 0,1 -1,1 -1,1 2,0 3,0 5,0 4,-1 8,-3 11,-7 1,0 1,-1 2,-1 0,0 0,0 0,0 1,-1 1,-1 2,0 1,0 1,1 0,1 0,0 0,1 0,1 0,0 -1,1 -1,1 -3,4 -7,8 -13,10 -2,1 -4,1 -7,1 9,0 17,-2 25,-8 1,-1 2,-1 3,-2 0,0 0,-1 0,-1 1,0 2,-1 2,0 1,1 1,1 0,2 0,0 0,1 0,1 -1,1 -1,2 -2,3l0 0 0 0c-5,4 -10,8 -15,10 -6,2 -11,2 -17,2 -6,0 -13,-1 -19,-2 -1,-1 -1,-1 -2,-1 -1,0 -3,0 -5,0 0,0 0,1 0,1 -1,1 -2,1 -3,1 -3,1 -9,0 -12,-3l0 0 0 0c0,-1 -1,-1 -1,-2z"/>
   <path fill="#996633" d="M7 119c-1,-2 -1,-5 -1,-8 0,-1 0,-2 0,-2 1,0 2,1 3,1 1,2 3,6 3,8 0,3 -3,3 -5,1zm5 0c1,-4 -3,-12 -6,-11 0,1 -1,1 -1,2 0,3 1,9 3,11 0,0 2,1 3,0 1,0 1,-1 1,-2z"/>
   <path fill="#CA9733" d="M7 119c-1,-2 -1,-5 -1,-8 0,0 0,-2 0,-2 1,0 1,0 1,0 0,0 1,1 1,1 1,0 1,0 1,0 0,1 1,2 1,2 0,1 1,2 1,2 0,2 1,3 1,4 0,1 -1,2 -2,3 0,0 -1,0 -1,0 -1,-1 -1,-1 -2,-2z"/>
   <path fill="#996633" d="M13 126c-1,-3 0,-6 1,-8 0,-1 1,-2 1,-2 1,0 2,1 2,2 1,2 1,6 0,8 -1,3 -4,2 -4,0zm4 1c2,-3 1,-13 -2,-12 0,0 -1,1 -1,1 -2,3 -3,8 -2,11 1,1 2,2 3,2 1,0 2,-1 2,-2z"/>
   <path fill="#CA9733" d="M13 126c-1,-3 0,-6 1,-8 0,-1 1,-2 1,-2 0,0 1,0 1,0 0,0 1,1 1,1 0,1 0,1 0,1 0,1 0,1 0,2 0,1 0,2 0,2 0,2 0,3 0,4 0,1 -1,2 -2,2 -1,0 -1,0 -1,-1 -1,0 -1,-1 -1,-1z"/>
   <path fill="#996633" d="M18 134c0,-2 0,-6 0,-8 1,-1 1,-2 1,-2 1,-1 2,1 2,2 1,1 2,6 2,8 -1,3 -4,2 -5,0zm5 1c2,-4 -1,-13 -4,-12 0,0 -1,1 -1,1 -1,3 -1,9 0,11 1,1 2,2 3,2 1,0 2,-1 2,-2z"/>
   <path fill="#CA9733" d="M18 134c0,-2 0,-6 0,-8 1,-1 1,-2 1,-2 1,0 1,0 1,0 0,0 1,1 1,1 0,0 0,0 0,1 1,0 1,1 1,1 0,1 1,2 1,3 0,1 0,3 0,4 0,1 -1,2 -2,2 0,0 -1,0 -1,-1 -1,0 -1,-1 -2,-1z"/>
   <path fill="#996633" d="M26 141c-2,-2 -2,-5 -2,-8 0,-1 0,-2 0,-2 1,0 2,1 3,2 1,1 3,5 3,7 0,3 -3,3 -4,1zm4 0c1,-4 -4,-12 -6,-11 0,1 -1,1 -1,2 0,3 1,9 3,11 1,0 2,1 3,0 1,0 1,-1 1,-2z"/>
   <path fill="#CA9733" d="M26 141c-2,-2 -2,-5 -2,-8 0,0 0,-2 0,-2 0,0 1,0 1,0 0,0 1,1 1,1 0,0 1,0 1,1 0,0 1,1 1,1 0,1 1,2 1,2 0,2 1,3 1,4 0,1 0,2 -1,3 -1,0 -1,0 -2,0 -1,-1 -1,-1 -1,-2z"/>
   <path fill="#996633" d="M34 147c-2,-2 -3,-5 -3,-7 -1,-1 -1,-2 0,-3 0,0 1,1 2,1 2,2 4,5 5,7 1,3 -2,4 -4,2zm5 -1c0,-4 -7,-11 -9,-9 0,0 0,1 0,2 0,2 2,8 4,9 1,1 3,1 4,0 0,0 1,-1 1,-2z"/>
   <path fill="#CA9733" d="M34 147c-2,-2 -3,-5 -3,-7 -1,-1 -1,-2 0,-3 0,0 0,0 0,0 0,0 1,1 2,1 0,0 0,0 0,0 1,1 1,1 2,2 0,0 1,1 1,2 1,1 2,2 2,3 0,1 0,2 -1,3 0,0 -1,0 -1,0 -1,0 -2,0 -2,-1z"/>
   <path fill="#996633" d="M58 154c0,1 3,-1 3,3 -12,1 -26,5 -36,1 -4,-1 -8,-4 -12,-9 -2,-2 -2,-2 1,0 12,13 29,7 44,5z"/>
   <path fill="#996633" d="M62 157c-2,-1 -4,-3 -6,-5 -3,-4 -5,-7 -6,-13 0,-3 1,-4 1,-1 2,7 6,11 11,14l0 5z"/>
   <path fill="#996633" d="M6 154c17,14 37,8 55,4 4,-1 7,-1 10,-1 0,1 3,-2 1,4 -18,1 -46,16 -67,-6 -4,-5 -3,-5 1,-1z"/>
   <path fill="#996633" d="M43 152c-2,-2 -4,-5 -4,-7 -1,-1 -1,-2 -1,-2 1,-1 2,0 3,0 2,1 5,4 6,7 1,2 -2,3 -4,2zm5 -2c-1,-4 -8,-10 -10,-8 0,1 -1,1 0,2 0,3 3,8 6,9 1,0 2,0 3,0 0,-1 1,-2 1,-3z"/>
   <path fill="#CA9733" d="M43 152c-2,-2 -4,-5 -4,-7 -1,-1 -1,-2 -1,-2 0,0 0,-1 0,-1 1,0 2,1 2,1 1,0 1,0 1,0 1,1 1,1 2,1 0,1 1,2 1,2 1,1 2,2 3,4 0,0 0,1 -1,2 0,0 -1,1 -1,1 -1,0 -2,-1 -2,-1z"/>
   <path fill="#996633" d="M53 155c-2,-1 -4,-4 -6,-6 0,-1 -1,-2 0,-2 0,-1 1,0 2,0 2,1 6,3 7,5 2,3 -1,4 -3,3zm4 -2c-1,-4 -10,-9 -11,-6 0,0 0,1 0,1 1,3 5,7 8,8 1,0 2,0 3,-1 0,-1 0,-2 0,-2z"/>
   <path fill="#CA9733" d="M53 155c-2,-1 -5,-4 -6,-6 0,0 -1,-2 0,-2 0,0 0,0 0,0 0,-1 1,0 2,0 0,0 0,0 0,0 1,0 2,1 2,1 1,0 2,1 2,1 1,1 2,2 3,3 1,1 1,2 0,3 0,0 -1,0 -1,0 -1,1 -1,0 -2,0z"/>
   <path fill="#996633" d="M62 157c-2,-1 -5,-4 -6,-6 0,-1 -1,-2 -1,-2 1,-1 2,0 3,0 2,1 6,3 7,5 2,3 -1,4 -3,3zm4 -2c-1,-4 -10,-9 -11,-7 0,1 0,2 0,2 1,3 5,7 8,8 1,0 2,0 3,-1 0,-1 0,-2 0,-2z"/>
   <path fill="#CA9733" d="M62 157c-2,-1 -5,-4 -6,-6 0,0 -1,-2 -1,-2 0,0 1,0 1,0 0,-1 1,0 2,0 0,0 0,0 0,0 1,0 2,1 2,1 1,0 1,1 2,1 1,1 2,2 3,3 1,1 1,2 0,3 0,0 -1,0 -1,0 -1,0 -2,0 -2,0z"/>
   <path fill="#996633" d="M74 158c-3,-1 -6,-3 -8,-4 0,-1 -1,-2 -1,-2 0,-1 2,-1 3,-1 2,0 6,2 8,3 2,2 0,4 -2,4zm3 -4c-3,-3 -12,-5 -13,-2 0,0 1,1 1,1 2,2 7,6 10,6 1,-1 2,-1 2,-2 1,-1 0,-2 0,-3z"/>
   <path fill="#CA9733" d="M74 158c-3,-1 -6,-3 -8,-4 0,-1 -1,-2 -1,-2 0,0 0,0 0,0 0,-1 2,-1 2,-1 0,0 1,0 1,0 0,0 1,0 2,0 1,1 1,1 2,1 1,1 3,1 4,2 0,1 1,2 1,3 -1,0 -1,0 -1,1 -1,0 -2,0 -2,0z"/>
   <path fill="#996633" d="M15 138c-2,-1 -5,-3 -6,-5 -1,-1 -1,-1 -1,-2 0,-1 2,-1 3,0 2,0 6,2 7,4 2,2 0,4 -3,3zm4 -3c-2,-3 -11,-7 -12,-4 0,0 0,1 1,2 1,2 5,6 8,6 2,0 3,0 3,-1 1,-1 1,-2 0,-3z"/>
   <path fill="#CA9733" d="M15 138c-2,-1 -5,-3 -6,-5 -1,0 -1,-1 -1,-2 0,0 0,0 0,0 0,-1 1,0 2,0 0,0 0,0 1,0 0,0 1,0 2,0 0,1 1,1 2,2 1,0 2,1 3,2 1,1 1,2 1,2 -1,1 -1,1 -2,1 0,1 -1,1 -2,0z"/>
   <path fill="#996633" d="M23 146c-2,-1 -5,-3 -7,-4 -1,-1 -1,-2 -1,-2 0,-1 1,-1 2,-1 2,0 7,2 9,3 2,2 0,4 -3,4zm4 -4c-3,-3 -12,-5 -13,-2 0,0 0,1 1,1 2,3 7,6 9,6 2,0 3,-1 3,-2 0,-1 0,-2 0,-3z"/>
   <path fill="#CA9733" d="M23 146c-2,-1 -5,-3 -7,-4 0,-1 -1,-1 -1,-2 0,0 0,0 0,0 0,-1 1,-1 2,-1 0,0 0,0 0,0 1,0 2,0 2,1 1,0 2,0 3,0 1,1 3,1 4,2 0,1 1,2 0,3 0,0 0,1 -1,1 0,0 -1,0 -2,0z"/>
   <path fill="#996633" d="M32 152c-2,0 -5,-1 -7,-3 -1,0 -2,-1 -2,-1 0,-1 1,-1 3,-1 2,-1 6,0 8,1 3,2 1,4 -2,4zm3 -4c-3,-2 -13,-3 -13,0 0,0 1,1 1,1 2,2 8,4 11,4 1,0 2,-1 2,-2 0,-1 0,-2 -1,-3z"/>
   <path fill="#CA9733" d="M32 152c-2,0 -5,-1 -7,-3 -1,0 -2,-1 -2,-1 0,0 0,-1 0,-1 0,0 1,0 2,0 0,0 0,0 1,0 0,-1 1,0 2,0 0,0 1,0 2,0 1,0 3,1 4,1 1,1 1,2 1,3 0,0 0,1 -1,1 0,0 -1,0 -2,0z"/>
   <path fill="#996633" d="M43 157c-3,1 -6,0 -9,-1 -1,-1 -1,-1 -2,-2 0,-1 2,-1 3,-1 2,-1 6,-1 8,0 3,1 2,4 0,4zm2 -4c-4,-2 -14,-2 -13,1 0,1 0,1 1,2 2,1 8,3 11,2 1,-1 2,-2 2,-3 0,-1 -1,-1 -1,-2z"/>
   <path fill="#CA9733" d="M43 157c-3,1 -6,0 -9,-1 0,-1 -1,-1 -2,-2 0,0 0,0 0,0 1,-1 2,-1 2,-1 0,0 1,0 1,0 0,0 1,-1 2,-1 1,0 1,0 2,0 2,0 3,1 4,1 1,1 2,1 2,2 0,1 0,1 -1,2 0,0 -1,0 -1,0z"/>
   <path fill="#996633" d="M53 160c-2,1 -5,1 -8,1 -1,0 -2,-1 -2,-1 0,-1 1,-2 2,-2 2,-1 6,-2 8,-2 3,0 3,3 0,4zm1 -4c-4,-2 -13,1 -12,4 0,0 1,1 2,1 2,1 9,1 11,-1 1,0 1,-1 1,-2 0,-1 -1,-2 -2,-2z"/>
   <path fill="#CA9733" d="M53 160c-2,1 -6,1 -8,1 0,0 -2,-1 -2,-1 0,0 0,0 0,0 0,-1 1,-2 1,-2 0,0 1,0 1,0 0,-1 1,-1 2,-1 0,0 1,0 2,-1 1,0 3,0 4,0 1,0 2,1 2,2 0,0 0,1 0,1 0,1 -1,1 -2,1z"/>
   <path fill="#996633" d="M64 162c-2,1 -6,1 -8,1 -1,0 -2,0 -2,-1 -1,-1 0,-1 1,-2 2,-1 7,-2 9,-2 3,1 3,3 0,4zm1 -4c-4,-1 -13,2 -12,4 0,1 1,1 2,1 2,1 8,1 11,-1 0,0 1,-1 1,-2 0,-1 -1,-2 -2,-2z"/>
   <path fill="#CA9733" d="M64 162c-2,1 -6,1 -8,1 -1,0 -2,0 -2,-1 0,0 0,0 0,0 0,-1 0,-1 1,-2 0,0 0,0 0,0 1,0 2,0 2,-1 1,0 2,0 3,0 1,-1 3,-1 4,-1 1,0 2,1 2,2 0,0 0,1 0,1 -1,1 -1,1 -2,1z"/>
   <path fill="#996633" d="M74 163c-2,2 -5,2 -8,2 -1,0 -2,0 -2,0 -1,-1 0,-2 1,-3 2,-1 6,-3 8,-3 3,0 4,3 1,4zm0 -4c-4,-1 -12,4 -11,6 1,1 1,1 2,1 3,0 9,-1 11,-3 1,-1 1,-2 0,-3 0,-1 -1,-1 -2,-1z"/>
   <path fill="#CA9733" d="M74 163c-2,2 -5,2 -8,2 0,0 -2,0 -2,0 0,0 0,0 0,0 0,-1 0,-2 1,-2 0,0 0,0 0,-1 1,0 1,0 2,-1 1,0 2,0 2,-1 2,0 3,-1 4,-1 1,0 2,0 3,1 0,1 0,1 0,2 -1,1 -1,1 -2,1z"/>
   <path fill="#996633" d="M12 126c-1,-2 -4,-4 -6,-5 -1,-1 -2,-1 -2,-1 -1,1 -1,2 0,3 0,2 3,5 5,6 3,2 4,-1 3,-3zm-2 4c-4,-1 -9,-9 -7,-10 1,-1 1,-1 2,0 3,1 7,4 8,7 0,1 0,2 -1,3 0,1 -1,1 -2,0z"/>
   <path fill="#CA9733" d="M12 126c-1,-2 -4,-4 -6,-5 -1,0 -2,-1 -2,-1 -1,0 -1,0 -1,0 0,1 0,2 0,2 0,1 1,1 1,1 0,1 0,1 1,2 0,0 1,1 1,2 1,1 2,2 3,2 1,1 2,1 3,1 0,-1 0,-1 0,-2 1,-1 0,-1 0,-2z"/>
   <path fill="#996633" d="M13 126c4,8 11,15 19,20 6,4 13,6 19,8 2,1 3,1 4,1 3,1 6,2 9,2 2,0 4,0 6,1 2,0 3,0 5,0l2 1c1,0 3,1 4,1l1 1c0,0 0,0 0,0 -9,-1 -18,-2 -27,-5 -8,-2 -16,-5 -23,-9 -9,-6 -15,-13 -20,-21l1 0z"/>
   <path fill="#996633" d="M158 119c1,-2 1,-5 1,-8 0,-1 0,-2 0,-2 -1,0 -2,1 -3,1 -1,2 -3,6 -3,8 0,3 3,3 5,1zm-5 0c-1,-4 3,-12 6,-11 0,1 1,1 1,2 0,3 -1,9 -3,11 -1,0 -2,1 -3,0 -1,0 -1,-1 -1,-2z"/>
   <path fill="#CA9733" d="M158 119c1,-2 1,-5 1,-8 0,0 0,-2 0,-2 -1,0 -1,0 -1,0 0,0 -1,1 -1,1 -1,0 -1,0 -1,0 0,1 -1,2 -1,2 0,1 -1,2 -1,2 0,2 -1,3 -1,4 0,1 1,2 2,3 0,0 1,0 1,0 1,-1 1,-1 2,-2z"/>
   <path fill="#996633" d="M152 126c1,-3 0,-6 -1,-8 0,-1 -1,-2 -1,-2 -1,0 -2,1 -2,2 -1,2 -1,6 0,8 1,3 4,2 4,0zm-4 1c-2,-3 -1,-13 2,-12 0,0 1,1 1,1 2,3 3,8 2,11 -1,1 -2,2 -3,2 -1,0 -2,-1 -2,-2z"/>
   <path fill="#CA9733" d="M152 126c1,-3 0,-6 -1,-8 0,-1 -1,-2 -1,-2 0,0 -1,0 -1,0 0,0 -1,1 -1,1 0,1 0,1 0,1 0,1 0,1 0,2 0,1 -1,2 -1,2 0,2 1,3 1,4 0,1 1,2 2,2 1,0 1,0 1,-1 1,0 1,-1 1,-1z"/>
   <path fill="#996633" d="M147 134c0,-2 0,-6 0,-8 -1,-1 -1,-2 -1,-2 -1,-1 -2,1 -2,2 -1,1 -2,6 -2,8 1,3 4,2 5,0zm-5 1c-2,-4 1,-13 4,-12 0,0 1,1 1,1 1,3 1,9 0,11 -1,1 -2,2 -3,2 -1,0 -2,-1 -2,-2z"/>
   <path fill="#CA9733" d="M147 134c0,-2 0,-6 0,-8 -1,-1 -1,-2 -1,-2 -1,0 -1,0 -1,0 0,0 -1,1 -1,1 0,0 0,0 0,1 -1,0 -1,1 -1,1 0,1 -1,2 -1,3 0,1 0,3 0,4 0,1 1,2 2,2 0,0 1,0 1,-1 1,0 1,-1 2,-1z"/>
   <path fill="#996633" d="M139 141c2,-2 2,-5 2,-8 0,-1 0,-2 0,-2 -1,0 -2,1 -3,2 -1,1 -3,5 -3,7 0,3 3,3 4,1zm-5 0c0,-4 5,-12 7,-11 0,1 1,1 1,2 0,3 -1,9 -3,11 -1,0 -2,1 -3,0 -1,0 -1,-1 -2,-2z"/>
   <path fill="#CA9733" d="M139 141c2,-2 2,-5 2,-8 0,0 0,-2 0,-2 0,0 -1,0 -1,0 0,0 -1,1 -1,1 0,0 -1,0 -1,1 0,0 -1,1 -1,1 0,1 -1,2 -1,2 0,2 -1,3 -1,4 0,1 0,2 1,3 1,0 1,0 2,0 1,-1 1,-1 1,-2z"/>
   <path fill="#996633" d="M131 147c2,-2 3,-5 3,-7 1,-1 1,-2 0,-3 0,0 -1,1 -2,1 -2,2 -4,5 -5,7 -1,3 2,4 4,2zm-5 -1c0,-4 7,-11 9,-9 0,0 0,1 0,2 0,2 -2,8 -4,9 -2,1 -3,1 -4,0 0,0 -1,-1 -1,-2z"/>
   <path fill="#CA9733" d="M131 147c2,-2 3,-5 3,-7 1,-1 1,-2 0,-3 0,0 0,0 0,0 0,0 -1,1 -2,1 0,0 0,0 0,0 -1,1 -1,1 -2,2 0,0 -1,1 -1,2 -1,1 -2,2 -2,3 0,1 0,2 1,3 0,0 1,0 1,0 1,0 2,0 2,-1z"/>
   <path fill="#996633" d="M107 154c0,1 -3,-1 -3,3 12,1 26,5 36,1 4,-1 8,-4 12,-9 2,-2 2,-2 -1,0 -12,13 -29,7 -44,5z"/>
   <path fill="#996633" d="M103 157c2,-1 4,-3 6,-5 3,-4 5,-7 6,-13 0,-3 -1,-4 -1,-1 -2,7 -6,11 -11,14l0 5z"/>
   <path fill="#996633" d="M159 154c-17,14 -37,8 -55,4 -4,-1 -7,-1 -10,-1 0,1 -3,-2 -1,4 18,1 46,16 67,-6 4,-5 3,-5 -1,-1z"/>
   <path fill="#996633" d="M122 152c2,-2 4,-5 4,-7 1,-1 1,-2 1,-2 -1,-1 -2,0 -3,0 -2,1 -5,4 -6,7 -1,2 2,3 4,2zm-5 -2c1,-4 8,-10 10,-8 0,1 1,1 0,2 0,3 -3,8 -6,9 -1,0 -2,0 -3,0 -1,-1 -1,-2 -1,-3z"/>
   <path fill="#CA9733" d="M122 152c2,-2 4,-5 4,-7 1,-1 1,-2 1,-2 0,0 0,-1 0,-1 -1,0 -2,1 -2,1 -1,0 -1,0 -1,0 -1,1 -1,1 -2,1 0,1 -1,2 -1,2 -1,1 -2,2 -3,4 0,0 0,1 1,2 0,0 1,1 1,1 1,0 2,-1 2,-1z"/>
   <path fill="#996633" d="M112 155c2,-1 4,-4 6,-6 0,-1 1,-2 0,-2 0,-1 -1,0 -2,0 -2,1 -6,3 -7,5 -2,3 1,4 3,3zm-4 -2c1,-4 10,-9 11,-6 0,0 0,1 0,1 -1,3 -5,7 -8,8 -1,0 -2,0 -3,-1 -1,-1 0,-2 0,-2z"/>
   <path fill="#CA9733" d="M112 155c2,-1 5,-4 6,-6 0,0 1,-2 0,-2 0,0 0,0 0,0 0,-1 -1,0 -2,0 0,0 0,0 0,0 -1,0 -2,1 -2,1 -1,0 -2,1 -2,1 -1,1 -2,2 -3,3 -1,1 -1,2 0,3 0,0 1,0 1,0 1,1 1,0 2,0z"/>
   <path fill="#996633" d="M103 157c2,-1 5,-4 6,-6 0,-1 1,-2 1,-2 -1,-1 -2,0 -3,0 -2,1 -6,3 -7,5 -2,3 1,4 3,3zm-4 -2c1,-4 10,-9 11,-7 0,1 0,2 0,2 -1,3 -5,7 -8,8 -1,0 -2,0 -3,-1 0,-1 0,-2 0,-2z"/>
   <path fill="#CA9733" d="M103 157c2,-1 5,-4 6,-6 0,0 1,-2 1,-2 0,0 -1,0 -1,0 0,-1 -1,0 -2,0 0,0 0,0 0,0 -1,0 -2,1 -2,1 -1,0 -1,1 -2,1 -1,1 -2,2 -3,3 -1,1 -1,2 0,3 0,0 1,0 1,0 1,0 1,0 2,0z"/>
   <path fill="#996633" d="M91 158c3,-1 6,-3 8,-4 0,-1 1,-2 1,-2 0,-1 -2,-1 -3,-1 -2,0 -6,2 -8,3 -2,2 0,4 2,4zm-3 -4c3,-3 12,-5 13,-2 0,0 -1,1 -1,1 -2,2 -7,6 -10,6 -1,-1 -2,-1 -2,-2 -1,-1 0,-2 0,-3z"/>
   <path fill="#CA9733" d="M91 158c3,-1 6,-3 8,-4 0,-1 1,-2 1,-2 0,0 0,0 0,0 0,-1 -2,-1 -2,-1 0,0 -1,0 -1,0 0,0 -1,0 -2,0 -1,1 -1,1 -2,1 -1,1 -3,1 -4,2 -1,1 -1,2 -1,3 0,0 1,0 1,1 1,0 2,0 2,0z"/>
   <path fill="#996633" d="M150 138c2,-1 5,-3 6,-5 1,-1 1,-1 1,-2 0,-1 -2,-1 -3,0 -2,0 -6,2 -7,4 -2,2 0,4 3,3zm-4 -3c2,-3 11,-7 12,-4 0,0 0,1 -1,2 -1,2 -5,6 -8,6 -2,0 -3,0 -3,-1 -1,-1 -1,-2 0,-3z"/>
   <path fill="#CA9733" d="M150 138c2,-1 5,-3 6,-5 0,0 1,-1 1,-2 0,0 0,0 0,0 0,-1 -1,0 -2,0 0,0 0,0 -1,0 0,0 -1,0 -2,0 0,1 -1,1 -2,2 -1,0 -2,1 -3,2 -1,1 -1,2 -1,2 1,1 1,1 2,1 0,1 1,1 2,0z"/>
   <path fill="#996633" d="M142 146c2,-1 5,-3 7,-4 1,-1 1,-2 1,-2 0,-1 -1,-1 -2,-1 -2,0 -7,2 -9,3 -2,2 0,4 3,4zm-4 -4c3,-3 12,-5 13,-2 0,0 0,1 -1,1 -2,3 -7,6 -9,6 -2,0 -3,-1 -3,-2 -1,-1 0,-2 0,-3z"/>
   <path fill="#CA9733" d="M142 146c2,-1 5,-3 7,-4 0,-1 1,-1 1,-2 0,0 0,0 0,0 0,-1 -1,-1 -2,-1 0,0 0,0 0,0 -1,0 -2,0 -2,1 -1,0 -2,0 -3,0 -1,1 -3,1 -4,2 0,1 -1,2 0,3 0,0 0,1 1,1 0,0 1,0 2,0z"/>
   <path fill="#996633" d="M133 152c2,0 5,-1 7,-3 1,0 2,-1 2,-1 0,-1 -1,-1 -3,-1 -2,-1 -6,0 -8,1 -3,2 -1,4 2,4zm-3 -4c3,-2 13,-3 13,0 0,0 -1,1 -1,1 -2,2 -8,4 -11,4 -1,0 -2,-1 -2,-2 0,-1 0,-2 1,-3z"/>
   <path fill="#CA9733" d="M133 152c2,0 5,-1 7,-3 1,0 2,-1 2,-1 0,0 0,-1 0,-1 0,0 -1,0 -2,0 0,0 0,0 -1,0 0,-1 -1,0 -2,0 0,0 -1,0 -2,0 -1,0 -3,1 -4,1 -1,1 -1,2 -1,3 0,0 0,1 1,1 0,0 1,0 2,0z"/>
   <path fill="#996633" d="M122 157c3,1 6,0 9,-1 1,-1 1,-1 2,-2 0,-1 -2,-1 -3,-1 -2,-1 -6,-1 -8,0 -3,1 -2,4 0,4zm-2 -4c4,-2 14,-2 13,1 0,1 0,1 -1,2 -2,1 -8,3 -11,2 -1,-1 -2,-2 -2,-3 0,-1 1,-1 1,-2z"/>
   <path fill="#CA9733" d="M122 157c3,1 6,0 9,-1 0,-1 1,-1 2,-2 0,0 0,0 0,0 -1,-1 -2,-1 -2,-1 0,0 -1,0 -1,0 0,0 -1,-1 -2,-1 -1,0 -2,0 -2,0 -2,0 -3,1 -4,1 -1,1 -2,1 -2,2 0,1 0,1 1,2 0,0 1,0 1,0z"/>
   <path fill="#996633" d="M112 160c2,1 5,1 8,1 1,0 2,-1 2,-1 0,-1 -1,-2 -2,-2 -2,-1 -6,-2 -8,-2 -3,0 -3,3 0,4zm-1 -4c4,-2 13,1 12,4 0,0 -1,1 -2,1 -3,1 -9,1 -11,-1 -1,0 -1,-1 -1,-2 0,-1 1,-2 2,-2z"/>
   <path fill="#CA9733" d="M112 160c2,1 5,1 8,1 0,0 2,-1 2,-1 0,0 0,0 0,0 0,-1 -1,-2 -1,-2 0,0 -1,0 -1,0 0,-1 -1,-1 -2,-1 0,0 -1,0 -2,-1 -1,0 -3,0 -4,0 -1,0 -2,1 -2,2 0,0 0,1 0,1 0,1 1,1 2,1z"/>
   <path fill="#996633" d="M101 162c2,1 6,1 8,1 1,0 2,0 2,-1 1,-1 0,-1 -1,-2 -2,-1 -7,-2 -9,-2 -3,1 -3,3 0,4zm-1 -4c4,-1 13,2 12,4 0,1 -1,1 -2,1 -2,1 -8,1 -11,-1 -1,0 -1,-1 -1,-2 0,-1 1,-2 2,-2z"/>
   <path fill="#CA9733" d="M101 162c2,1 6,1 8,1 1,0 2,0 2,-1 0,0 0,0 0,0 0,-1 0,-1 -1,-2 0,0 0,0 0,0 -1,0 -2,0 -2,-1 -1,0 -2,0 -3,0 -1,-1 -3,-1 -4,-1 -1,0 -2,1 -2,2 0,0 0,1 0,1 1,1 1,1 2,1z"/>
   <path fill="#996633" d="M91 163c2,2 5,2 8,2 1,0 2,0 2,0 1,-1 -1,-2 -1,-3 -2,-1 -6,-3 -8,-3 -3,0 -4,3 -1,4zm0 -4c4,-1 12,4 11,6 -1,1 -1,1 -2,1 -3,0 -9,-1 -11,-3 -1,-1 -1,-2 0,-3 0,-1 1,-1 2,-1z"/>
   <path fill="#CA9733" d="M91 163c2,2 5,2 8,2 0,0 2,0 2,0 0,0 0,0 0,0 0,-1 0,-2 -1,-2 0,0 0,0 0,-1 -1,0 -2,0 -2,-1 -1,0 -2,0 -2,-1 -2,0 -3,-1 -4,-1 -1,0 -2,0 -3,1 0,1 0,1 0,2 1,1 1,1 2,1z"/>
   <path fill="#996633" d="M153 126c1,-2 4,-4 6,-5 1,-1 2,-1 2,-1 1,1 1,2 0,3 0,2 -3,5 -5,6 -3,2 -4,-1 -3,-3zm2 4c4,-1 9,-9 7,-10 -1,-1 -1,-1 -2,0 -3,1 -7,4 -8,7 0,1 0,2 1,3 0,1 1,1 2,0z"/>
   <path fill="#CA9733" d="M153 126c1,-2 4,-4 6,-5 1,0 2,-1 2,-1 1,0 1,0 1,0 0,1 0,2 0,2 0,1 -1,1 -1,1 0,1 0,1 -1,2 0,0 -1,1 -1,2 -1,1 -2,2 -3,2 -1,1 -2,1 -3,1 0,-1 0,-1 -1,-2 0,-1 1,-1 1,-2z"/>
   <path fill="#996633" d="M152 126c-4,8 -11,15 -19,20 -6,4 -13,6 -19,8 -2,1 -3,1 -4,1 -3,1 -6,2 -9,2 -2,0 -4,0 -6,1 -2,0 -3,0 -5,0l-2 1c-1,0 -3,1 -4,1l-1 1c0,0 0,0 0,0 9,-1 18,-2 27,-5 8,-2 16,-5 23,-9 9,-6 15,-13 20,-21l-1 0z"/>
   <path fill="#A56D45" fill-rule="nonzero" d="M63 174l-1 1 -5 0 0 -5 6 0 -1 1 -3 0 0 1 4 0 -1 1 -3 0 0 1 4 0zm5 -2c0,0 1,0 1,0 1,0 1,1 1,1 0,0 0,1 0,1 0,0 -1,0 -1,0 0,0 0,1 0,1 -1,0 -1,0 -1,0l-5 0 1 -1 4 0c0,0 0,-1 0,-1 0,0 0,0 0,0 0,0 0,0 0,0 0,0 0,0 0,0l-3 0c0,0 -1,0 -1,0 0,0 0,0 0,-1 0,0 -1,0 -1,0 0,0 0,0 0,-1 0,0 0,0 0,0 0,0 1,-1 1,-1 0,0 0,0 0,0 1,0 1,0 1,0l5 0 -1 1 -4 0c0,0 0,0 0,0 0,0 0,0 0,1 0,0 0,0 0,0 0,0 0,0 0,0l3 0zm8 -2l-1 1 -2 0 0 4 -1 0 0 -4 -2 0 0 -1 6 0zm0 4c0,0 0,0 0,0 0,-1 0,-1 0,-1 1,0 1,0 1,1 0,0 0,0 0,0 0,0 0,1 0,1 0,0 0,0 -1,0 0,0 0,0 0,0 0,0 0,-1 0,-1zm6 -4l3 0c0,0 0,0 1,0 0,0 0,0 0,0 1,0 1,1 1,1 0,0 0,0 0,0 0,1 0,1 0,1 0,0 0,0 -1,0 0,1 0,1 0,1 0,0 -1,0 -1,0l-2 0c0,0 -1,0 -1,0 0,0 0,0 0,0l0 1 5 0 -1 1 -5 0 0 -2c0,0 0,-1 0,-1 0,0 1,0 2,0l2 0c0,0 0,0 0,0 0,0 0,0 0,0 0,-1 0,-1 0,-1 0,0 0,0 0,0l-4 0 1 -1zm9 0c1,0 2,0 2,0 1,1 1,1 1,2 0,1 0,2 -1,2 0,1 -1,1 -2,1 -1,0 -2,0 -3,-1 0,0 0,-1 0,-2 0,-1 0,-1 0,-2 1,0 2,0 3,0zm0 4c0,0 0,0 0,0 1,-1 1,-1 1,-1 0,0 0,0 0,0 0,0 0,0 0,-1 0,0 0,0 0,0 0,0 0,-1 0,-1 0,0 0,0 -1,0 0,0 0,0 0,0 -1,0 -1,0 -1,0 0,0 0,0 -1,0 0,0 0,1 0,1 0,0 0,0 0,0 0,1 0,1 0,1 0,0 0,0 0,0 1,0 1,0 1,1 0,0 0,0 1,0zm7 -4c1,0 1,0 2,0 0,1 1,1 1,2 0,1 -1,2 -1,2 -1,1 -1,1 -2,1 -1,0 -2,0 -3,-1 0,0 -1,-1 -1,-2 0,-1 1,-1 1,-2 1,0 2,0 3,0zm0 4c0,0 0,0 0,0 1,-1 1,-1 1,-1 0,0 0,0 0,0 0,0 0,0 0,-1 0,0 0,0 0,0 0,0 0,-1 0,-1 0,0 0,0 -1,0 0,0 0,0 0,0 -1,0 -1,0 -1,0 0,0 -1,0 -1,0 0,0 0,1 0,1 0,0 0,0 0,0 0,1 0,1 0,1 0,0 0,0 0,0 0,0 1,0 1,1 0,0 0,0 1,0zm7 0c0,0 1,-1 1,-1 0,0 0,0 0,0 0,0 0,0 0,0 0,0 0,0 -1,0 0,0 0,0 0,0 -1,0 -1,0 -2,0 0,0 -1,0 -1,-1 -1,0 -1,0 -1,0 0,-1 0,-1 1,-1 0,-1 0,-1 0,-1 1,0 1,0 1,0 1,0 1,0 1,0 2,0 2,0 3,0 1,1 1,1 1,2 0,1 0,1 0,1 -1,1 -1,1 -1,1 0,0 -1,0 -1,1 0,0 -1,0 -1,0l-3 0 1 -1 2 0zm-2 -2c1,0 1,0 1,0 1,0 1,0 1,0 0,0 0,0 0,0 1,0 1,0 1,0 0,0 0,0 0,0 0,0 0,0 0,0 0,0 0,0 0,-1 0,0 0,0 0,0 0,0 -1,0 -1,0 0,0 0,0 -1,0 0,0 0,0 0,0 -1,0 -1,0 -1,0 0,0 0,0 0,0 0,0 0,0 0,1 0,0 0,0 0,0z"/>
   <g>
    <path fill="#373435" fill-rule="nonzero" d="M253 124l1 0c0,1 1,3 2,5 0,1 1,2 1,3 0,0 0,0 1,0 0,0 0,0 0,0 0,0 0,1 0,1l0 0c-1,-1 -1,-1 -2,-1 -1,0 -1,0 -1,0 -1,0 -1,0 -1,0 0,0 0,0 0,0 1,0 1,0 1,0 0,0 0,0 0,0 0,0 0,-1 0,-2l0 -1c-1,0 -2,0 -3,0 -1,1 -1,2 -1,2 0,1 0,1 0,1 1,0 1,0 1,0 0,0 0,0 0,0 0,0 0,0 0,0 -1,0 -1,0 -1,0 -1,0 -1,0 -2,0 0,0 0,0 0,0 0,0 0,0 0,0 1,0 1,0 2,-1 0,0 0,-1 1,-3 0,-1 1,-3 1,-4zm0 1c0,1 -1,2 -1,4 0,0 1,0 1,0l2 0c-1,-1 -1,-1 -1,-2 0,-1 -1,-1 -1,-2zm24 0c0,0 -1,0 -1,0 -1,0 -1,0 -2,0 0,1 0,1 0,1 -1,0 -1,0 -1,0 0,0 0,0 0,0 0,0 0,-1 0,-2 1,0 1,0 1,0 0,0 1,0 1,0 1,0 2,0 3,0 1,0 2,0 3,0 0,0 0,0 1,0 0,1 0,1 0,1 0,1 0,1 0,1 0,0 0,0 0,0 0,0 0,0 0,0 0,0 0,0 0,0 0,0 0,0 0,0 -1,-1 -1,-1 -1,-1 0,0 -1,0 -1,0 0,0 -1,0 -2,0 0,0 0,1 0,2 0,2 0,4 0,4 1,1 1,1 2,1 0,0 0,0 0,0 0,0 0,0 0,0l-4 0c0,0 0,0 0,0 0,0 0,0 0,0 0,0 0,0 1,0 0,0 0,-1 0,-1 0,0 0,-1 0,-3 0,-1 0,-2 0,-3zm15 -1l0 0c1,1 1,3 2,5 1,1 1,2 1,3 1,0 1,0 1,0 0,0 1,0 1,0 0,0 0,1 -1,1l0 0c0,-1 -1,-1 -1,-1 -1,0 -2,0 -2,0 0,0 0,0 0,0 0,0 0,0 0,0 0,0 1,0 1,0 0,0 0,0 0,0 0,0 0,-1 0,-2l-1 -1c0,0 -1,0 -3,0 0,1 0,2 0,2 0,1 0,1 0,1 0,0 0,0 1,0 0,0 0,0 0,0 0,0 0,0 0,0 -1,0 -1,0 -2,0 0,0 -1,0 -1,0 0,0 0,0 0,0 0,0 0,0 0,0 0,0 1,0 1,-1 0,0 1,-1 1,-3 1,-1 1,-3 2,-4zm0 1c-1,1 -1,2 -2,4 1,0 1,0 1,0l2 0c0,-1 0,-1 -1,-2 0,-1 0,-1 0,-2zm16 0c0,0 0,-1 0,-1 0,0 0,0 1,0 0,0 0,0 0,0 0,0 0,1 0,1l0 1c0,0 0,0 0,0 0,0 0,0 0,0 -1,0 -1,-1 -1,-1 -1,0 -1,-1 -2,-1 0,0 -1,1 -1,1 0,0 0,1 0,1 0,0 0,1 0,1 0,0 1,0 2,1 0,0 1,0 1,0 1,0 1,1 1,1 0,0 0,1 0,1 0,1 0,1 0,2 -1,0 -2,1 -2,1 -1,0 -2,-1 -3,-1 0,0 0,0 0,0 0,0 0,1 0,1 0,0 0,-1 0,-1 0,0 0,-1 0,-2 0,0 0,0 0,0 0,0 0,0 0,0 0,2 1,2 3,2 0,0 1,0 1,0 0,-1 0,-1 0,-1 0,-1 0,-1 0,-1 0,0 0,-1 0,-1 -1,0 -1,0 -2,0 -1,-1 -1,-1 -2,-1 0,0 0,-1 0,-1 0,0 0,0 0,-1 0,0 0,-1 0,-1 1,-1 2,-1 2,-1 1,0 1,0 1,0 0,0 1,1 1,1zm12 0c0,0 0,0 -1,0 0,0 -1,0 -2,0 0,1 0,1 0,1 0,0 0,0 0,0 0,0 -1,0 -1,0 0,0 1,-1 1,-2 0,0 0,0 0,0 0,0 1,0 1,0 1,0 2,0 3,0 1,0 2,0 3,0 0,0 1,0 1,0 0,1 0,1 0,1 0,1 0,1 0,1 0,0 0,0 0,0 0,0 0,0 0,0 0,0 0,0 0,0 0,0 0,0 0,0 0,-1 -1,-1 -1,-1 0,0 0,0 -1,0 0,0 -1,0 -2,0 0,0 0,1 0,2 0,2 0,4 1,4 0,1 0,1 1,1 0,0 0,0 0,0 0,0 0,0 0,0l-4 0c0,0 0,0 0,0 0,0 0,0 0,0 0,0 1,0 1,0 0,0 0,-1 0,-1 0,0 0,-1 0,-3 0,-1 0,-2 0,-3zm19 -1c0,1 0,1 1,2 0,0 0,0 0,0 -1,0 -1,0 -1,0 0,0 0,-1 0,-1 -1,0 -1,0 -1,0 -1,0 -1,0 -2,0 0,0 -1,0 -1,0 0,0 0,0 0,0 0,0 0,0 0,0 0,0 0,1 0,3 0,0 0,0 0,0 0,0 0,0 0,0 1,0 1,0 2,0 0,0 0,-1 0,-1 0,0 0,0 0,0 0,0 0,0 0,0l0 0c0,0 0,1 0,1 0,1 0,1 0,2 0,0 0,0 0,0 0,0 0,0 0,0 0,-1 0,-1 0,-1 -1,-1 -1,-1 -2,-1 0,1 0,1 0,2 0,1 0,1 0,1 0,1 0,1 0,1 1,0 1,0 2,0 1,0 2,0 3,-1 0,-1 0,-1 0,-1 0,0 0,0 0,1 0,0 0,0 0,0 0,0 0,0 0,1 0,0 0,0 0,1l-3 0c-1,0 -1,0 -2,-1 -1,0 -1,0 -2,0 0,0 -1,0 -1,0 0,0 0,0 0,0 0,0 0,0 0,0 1,0 1,0 1,0 1,0 1,-1 1,-2l0 -1 0 -1c0,-1 0,-1 0,-2 0,0 0,-1 0,-1 -1,0 -1,0 -1,0 0,0 0,0 0,-1 -1,0 -1,0 -1,0 0,0 1,0 1,0l1 0c0,0 2,0 3,0 2,0 2,0 2,0zm17 4c0,0 0,-1 0,-2 1,0 1,-1 2,-1 1,-1 1,-1 2,-1 1,0 2,1 3,1 1,1 1,2 1,3 0,1 0,2 -1,3 -1,1 -2,2 -3,2 -1,0 -2,-1 -3,-2 -1,0 -1,-1 -1,-3zm1 0c0,1 0,1 1,2 0,1 0,1 1,2 0,0 0,0 1,0 1,0 2,0 2,-1 1,-1 1,-2 1,-3 0,-1 0,-2 -1,-2 0,-1 -1,-2 -2,-2 -1,0 -1,1 -2,1 0,0 0,1 -1,1 0,1 0,2 0,2zm17 0l0 2c0,1 0,2 0,2 0,0 0,0 0,0 0,0 1,0 1,0 0,0 0,0 0,0 0,0 0,1 0,1 0,0 0,0 0,0 -1,-1 -1,-1 -2,-1 0,0 0,0 -1,0l0 1c0,0 0,-1 0,-1 0,0 0,0 0,0 0,0 0,0 1,0 0,0 0,-1 0,-1 0,-1 0,-2 0,-3 0,-1 0,-1 0,-2 0,0 0,-1 0,-1 0,0 -1,0 -1,0 0,0 0,0 0,0 0,0 -1,0 -1,-1 0,0 1,0 1,0 1,0 3,0 6,0 0,0 0,0 1,0 0,0 0,0 0,0 0,0 0,1 0,1 0,1 0,1 0,1 0,0 0,0 0,0 0,0 0,0 0,0 -1,-1 -2,-1 -3,-1 -1,0 -1,0 -1,0 -1,0 -1,0 -1,0 0,0 0,0 0,1 0,0 0,1 0,2 0,0 1,0 1,0 0,0 1,0 1,0 0,-1 0,-1 0,-1 0,0 0,0 0,0 1,0 1,0 1,0 0,0 0,0 0,0 0,0 0,1 0,2l0 0c0,1 0,1 -1,1 0,0 0,0 0,0 0,-1 0,-1 0,-1 0,-1 -1,-1 -1,-1 -1,0 -1,0 -1,0zm24 -3c0,0 -1,0 -1,0 -1,0 -1,0 -2,0 0,1 0,1 0,1 0,0 -1,0 -1,0 0,0 0,0 0,0 0,0 0,-1 1,-2 0,0 0,0 0,0 0,0 1,0 1,0 1,0 2,0 3,0 1,0 2,0 3,0 0,0 0,0 1,0 0,1 0,1 0,1 0,1 0,1 0,1 0,0 0,0 0,0 0,0 0,0 0,0 0,0 0,0 0,0 0,0 0,0 0,0 -1,-1 -1,-1 -1,-1 0,0 -1,0 -1,0 0,0 -1,0 -2,0 0,0 0,1 0,2 0,2 0,4 0,4 1,1 1,1 2,1 0,0 0,0 0,0 0,0 0,0 0,0l-4 0c0,0 0,0 0,0 0,0 0,0 0,0 0,0 1,0 1,0 0,0 0,-1 0,-1 0,0 0,-1 0,-3 0,-1 0,-2 0,-3zm17 3c1,0 1,1 1,1 1,0 1,1 1,1 0,1 0,2 0,2 1,0 1,0 1,0 1,0 1,0 1,0 0,0 0,0 -1,0 -1,0 -2,0 -2,0 0,0 0,0 0,-1 0,-1 -1,-1 -1,-2 0,0 0,0 0,0 -1,-1 -1,-1 -2,-1 0,0 0,0 0,0 0,1 0,1 0,1 0,1 0,2 0,2 0,1 0,1 0,1 0,0 0,0 1,0 0,0 0,0 0,0 0,0 0,0 0,0l-4 0c0,0 0,0 0,0 0,0 0,0 0,0 1,0 1,0 1,0 0,0 0,0 0,0 0,-1 0,-1 0,-1l0 -2 0 -2c0,-1 0,-1 0,-2 0,0 0,0 0,0 0,0 0,-1 -1,-1 0,0 0,0 0,0 0,0 0,0 0,0l4 0c1,0 2,0 3,1 0,0 0,1 0,1 0,1 0,1 0,1 0,0 0,1 -1,1 0,0 0,0 -1,0zm-2 0c0,0 1,0 1,0 1,0 1,0 2,-1 0,0 0,0 0,-1 0,0 0,-1 -1,-1 0,0 0,-1 -1,-1 0,0 -1,0 -1,1 0,1 0,2 0,2 0,0 0,1 0,1zm16 -4l0 0c1,1 2,3 2,5 1,1 1,2 2,3 0,0 0,0 0,0 1,0 1,0 1,0 0,0 0,1 0,1l0 0c-1,-1 -1,-1 -2,-1 -1,0 -2,0 -2,0 0,0 0,0 0,0 0,0 0,0 0,0 1,0 1,0 1,0 0,0 0,0 0,0 0,0 0,-1 0,-2l-1 -1c0,0 -1,0 -3,0 0,1 0,2 0,2 0,1 0,1 0,1 0,0 0,0 1,0 0,0 0,0 0,0 0,0 0,0 0,0 -1,0 -1,0 -1,0 -1,0 -2,0 -2,0 0,0 0,0 0,0 0,0 0,0 0,0 1,0 1,0 1,-1 0,0 1,-1 1,-3 1,-1 2,-3 2,-4zm0 1c-1,1 -1,2 -2,4 1,0 1,0 1,0l2 0c0,-1 0,-1 0,-2 -1,-1 -1,-1 -1,-2zm14 -1l2 0c1,0 2,1 3,1 1,1 2,2 2,3 0,1 -1,2 -1,3 0,0 -1,1 -2,1 0,0 -1,1 -2,1 0,0 -1,0 -1,0 -1,-1 -1,-1 -1,-1 -1,0 -2,0 -2,0 -1,0 -1,0 -1,0 0,0 0,0 0,0 0,0 1,0 1,0 0,0 0,0 1,0 0,0 0,-1 0,-2l0 -4c0,0 0,0 0,-1 0,0 0,0 0,0 0,0 -1,-1 -1,-1 0,0 0,0 0,0 0,0 0,0 0,0 0,0 0,0 1,0 0,0 1,0 1,0zm0 6c0,1 0,1 0,1 0,1 0,1 1,1 0,0 0,0 1,0 1,0 1,0 2,0 0,-1 1,-1 1,-2 0,0 0,-1 0,-2 0,-1 0,-1 -1,-2 0,-1 -1,-1 -3,-1 0,0 -1,0 -1,0 0,0 0,0 0,0 0,0 0,0 0,1 0,0 0,1 0,1l0 2c0,1 0,1 0,1zm14 -6l2 0 1 0c1,0 1,0 1,0 0,0 0,0 -1,0 0,0 0,1 0,1 -1,0 -1,1 -1,3 0,1 0,1 0,2 0,1 1,1 1,2 0,0 0,0 0,0 0,0 0,0 0,0 1,0 1,0 1,0 0,0 0,0 -1,0l-1 0 -1 0c-1,0 -1,0 -1,0 0,0 0,0 0,0 1,0 1,0 1,0 0,0 0,-1 0,-3 0,-1 0,-2 0,-3 0,-1 0,-1 0,-1 0,0 0,-1 -1,-1 0,0 0,0 0,0 0,0 0,0 0,0zm15 1c-1,0 -1,0 -1,0 -1,0 -2,0 -2,0 0,1 -1,1 -1,1 0,0 0,0 0,0 0,0 0,0 0,0 0,0 0,-1 0,-2 0,0 0,0 1,0 0,0 0,0 1,0 1,0 1,0 3,0 1,0 2,0 2,0 1,0 1,0 2,0 0,1 0,1 0,1 0,1 0,1 0,1 0,0 0,0 0,0 0,0 0,0 0,0 0,0 0,0 0,0 0,0 -1,0 -1,0 0,-1 0,-1 0,-1 -1,0 -1,0 -1,0 -1,0 -1,0 -2,0 0,0 0,1 0,2 0,2 0,4 0,4 0,1 1,1 1,1 1,0 1,0 1,0 0,0 0,0 -1,0l-4 0c0,0 0,0 0,0 0,0 0,0 1,0 0,0 0,0 0,0 1,0 1,-1 1,-1 0,0 0,-1 0,-3 0,-1 0,-2 0,-3zm12 -1l1 0 2 0c0,0 1,0 1,0 0,0 -1,0 -1,0 0,0 0,1 -1,1 0,0 0,1 0,3 0,1 0,1 0,2 0,1 0,1 0,2 1,0 1,0 1,0 0,0 0,0 0,0 0,0 1,0 1,0 0,0 -1,0 -1,0l-1 0 -2 0c0,0 0,0 0,0 0,0 0,0 0,0 1,0 1,0 1,0 0,0 0,-1 0,-3 0,-1 0,-2 0,-3 0,-1 0,-1 0,-1 0,0 0,-1 -1,-1 0,0 0,0 0,0 0,0 0,0 0,0zm11 4c0,0 0,-1 1,-2 0,0 0,-1 1,-1 1,-1 2,-1 2,-1 2,0 3,1 3,1 1,1 2,2 2,3 0,1 -1,2 -2,3 -1,1 -2,2 -3,2 -1,0 -2,-1 -3,-2 -1,0 -1,-1 -1,-3zm2 0c0,1 0,1 0,2 0,1 0,1 1,2 0,0 1,0 1,0 1,0 2,0 2,-1 1,-1 1,-2 1,-3 0,-1 0,-2 -1,-2 0,-1 -1,-2 -2,-2 0,0 -1,1 -1,1 -1,0 -1,1 -1,1 0,1 0,2 0,2z"/>
    <path fill="#373435" fill-rule="nonzero" d="M513 124c0,1 0,1 1,2l2 2 2 2c0,0 0,-1 0,-3 0,0 0,-1 0,-1 0,-1 0,-1 0,-1 -1,0 -1,0 -1,0 0,0 0,0 0,-1 0,0 0,0 0,0 0,0 0,0 0,0 1,0 1,0 2,0l1 0 0 0c0,0 0,0 0,0 0,0 0,1 0,1 -1,0 -1,0 -1,0 0,0 0,0 0,1 0,0 0,1 0,3l-1 3c0,0 0,0 0,0 0,0 0,0 0,0 0,0 0,0 0,0 -1,-1 -1,-1 -2,-2 0,0 -1,-1 -1,-1 0,-1 -1,-1 -1,-1 -1,-1 -1,-1 -1,-2 0,0 0,0 0,0 0,0 0,0 0,0l0 1c0,2 0,3 0,3 0,1 0,1 0,2 0,0 0,0 0,0 0,0 1,0 1,0 0,0 0,0 0,0 0,0 0,0 0,0l-3 0c0,0 0,0 0,0 0,0 0,0 0,0 1,0 1,0 1,0 0,0 0,-1 0,-2l0 -2c0,-1 0,-2 0,-2 0,0 0,-1 0,-1 -1,0 -1,0 -1,0 0,-1 0,-1 0,-1 0,0 0,0 0,0l2 0z"/>
    <path fill="#759F4A" d="M367 69c-4,-3 -6,-6 -14,-4 -7,2 -13,7 -16,12 -2,2 -3,4 -4,6 -3,7 -3,9 -2,16 -4,1 -9,1 -9,-3 0,-5 5,-18 6,-24 1,-2 2,-5 2,-8l-16 0c0,2 0,3 -1,5 -6,-4 -8,-4 -12,-4 -7,0 -15,7 -18,13 -12,16 -6,33 6,33 4,0 6,0 11,-2 2,-1 4,-3 5,-4 1,11 19,6 27,-2 1,5 5,8 10,8 10,2 14,-2 17,-6 3,11 24,6 27,-4 2,4 4,10 15,10 6,0 11,-4 13,-6 1,10 19,8 26,-2 5,4 5,5 11,7 6,2 12,2 18,-1 14,-7 22,-29 13,-39 -6,-7 -14,-6 -18,-3 0,-3 1,-6 1,-9 0,-13 -19,-14 -27,-1 -1,2 -1,4 -2,6 2,-1 2,-3 8,-3 7,0 2,11 0,18 -1,5 -5,17 -5,21 -1,0 -8,2 -8,-3 0,-4 3,-12 4,-16l4 -16 -16 0c-1,2 -1,3 -1,5 -6,-4 -9,-4 -12,-4 -4,0 -8,2 -10,4 -8,6 -17,19 -14,29 -1,1 -10,5 -10,-3l6 -24c1,-4 3,-8 4,-12l3 -11 -15 0c-3,0 -2,2 -4,10 -1,3 -2,7 -3,11zm-66 12c-3,-1 -6,1 -8,5 -2,4 -2,8 1,9 2,1 5,-1 7,-5 2,-4 2,-8 0,-9zm54 0c-2,-1 -6,1 -8,5 -2,4 -2,8 1,9 2,1 5,-1 7,-5 2,-4 2,-8 0,-9zm56 0c-2,-1 -6,1 -8,5 -2,4 -1,8 1,9 2,1 5,-1 7,-5 2,-4 2,-8 0,-9zm56 0c-2,-1 -6,1 -8,5 -2,4 -1,8 1,9 2,1 6,-1 7,-5 2,-4 2,-8 0,-9z"/>
    <path fill="#759F4A" d="M543 111c9,0 7,-1 12,-2 -1,8 -12,11 -13,5 -1,0 -2,1 -2,5 0,13 20,14 28,-1 2,-3 11,-39 13,-44 3,-12 5,-10 -14,-10 -1,3 -2,6 -2,10l-5 18c-1,1 -2,8 -4,8 -8,0 -3,-11 -1,-20 1,-3 4,-13 4,-16 -20,0 -15,-2 -19,13 -2,5 -7,23 -6,27 1,4 4,7 9,7z"/>
    <path fill="#759F4A" d="M507 66c-7,3 -14,12 -17,19 -6,14 1,29 15,28 21,-2 35,-28 27,-41 -2,-4 -6,-7 -11,-8 -4,-1 -10,0 -14,2zm7 15c-2,-1 -5,1 -7,5 -2,4 -2,8 0,9 3,1 6,-1 8,-5 2,-4 2,-8 -1,-9z"/>
    <path fill="#759F4A" d="M261 64c-6,0 -4,0 -6,8 -1,2 -2,7 -2,9l3 0 -9 30 17 0 8 -30 6 0c1,-2 4,-14 4,-17l-5 0c3,-5 10,-7 12,-1l1 0c0,-2 0,-3 0,-5 0,-11 -14,-14 -23,-5 -3,2 -6,6 -6,11z"/>
    <path fill="#759F4A" d="M218 52c18,0 32,13 32,29 0,17 -14,30 -32,30 -17,0 -32,-13 -32,-30 0,-16 15,-29 32,-29zm0 21c6,0 10,4 10,8 0,5 -4,9 -10,9 -5,0 -10,-4 -10,-9 0,-4 5,-8 10,-8z"/>
    <polygon fill="#759F4A" points="306,45 300,54 316,61 318,58 "/>
    <polygon fill="#759F4A" points="413,45 406,54 422,61 425,58 "/>
   </g>
  </g>
 </g>
</svg>
